<svg xmlns="http://www.w3.org/2000/svg" width="1500" height="5904" viewBox="0 0 1500 5904">
  <defs>
    <marker id="arrow" markerWidth="10" markerHeight="10" refX="9" refY="5" orient="auto" markerUnits="strokeWidth">
      <path d="M 0 0 L 10 5 L 0 10 z" fill="#495057"/>
    </marker>
    <style>
      .title { font: 700 30px sans-serif; fill: #1e1e1e; }
      .subtitle { font: 16px sans-serif; fill: #495057; }
      .lane { font: 700 18px sans-serif; fill: #1e1e1e; }
      .box-title { font: 700 16px sans-serif; fill: #1e1e1e; }
      .box-text { font: 14px sans-serif; fill: #343a40; }
      .arrow { stroke: #495057; stroke-width: 2; fill: none; marker-end: url(#arrow); }
      .disabled { stroke-dasharray: 8 6; }
    </style>
  </defs>
  <rect x="0" y="0" width="1500" height="5904" fill="#ffffff"/>
  <text x="750" y="42" text-anchor="middle" class="title">Telegram Alert Map</text>
  <text x="750" y="72" text-anchor="middle" class="subtitle">Generated from normalized records. Live and repo-only alerts are separated into lanes.</text>
  <rect x="24" y="118" rx="14" ry="14" width="980" height="4830" fill="#e7f5ff" stroke="#74c0fc" stroke-width="2"/>
  <text x="40" y="142" class="lane">Live Scheduler Tasks</text>
  <rect x="42" y="146" rx="16" ry="16" width="430" height="78" fill="#d0ebff" stroke="#1c7ed6" stroke-width="2"/>
  <text x="60" y="172" class="box-title">Sector Heatmap</text>
  <text x="60" y="194" class="box-text">15:30 HKT</text>
  <text x="60" y="216" class="box-text">Sector screenshot flow and heatmap capture</text>
  <path class="arrow" d="M 472 185 C 572 185, 990 2952, 1110 2952"/>
  <rect x="42" y="242" rx="16" ry="16" width="430" height="96" fill="#d0ebff" stroke="#1c7ed6" stroke-width="2"/>
  <text x="60" y="268" class="box-title">Commodity Model - Live Overlay Report</text>
  <text x="60" y="290" class="box-text">09:45 HKT</text>
  <text x="60" y="312" class="box-text">Fresh gold, silver, copper, and DXY live-</text>
  <text x="60" y="334" class="box-text">overlay summary</text>
  <path class="arrow" d="M 472 290 C 572 290, 990 2952, 1110 2952"/>
  <rect x="42" y="356" rx="16" ry="16" width="430" height="96" fill="#d0ebff" stroke="#1c7ed6" stroke-width="2"/>
  <text x="60" y="382" class="box-title">Commodity Model - Live Overlay Report</text>
  <text x="60" y="404" class="box-text">21:45 HKT</text>
  <text x="60" y="426" class="box-text">Fresh gold, silver, copper, and DXY live-</text>
  <text x="60" y="448" class="box-text">overlay summary</text>
  <path class="arrow" d="M 472 404 C 572 404, 990 2952, 1110 2952"/>
  <rect x="42" y="470" rx="16" ry="16" width="430" height="96" fill="#d0ebff" stroke="#1c7ed6" stroke-width="2"/>
  <text x="60" y="496" class="box-title">Cross-Asset Momentum (1D)</text>
  <text x="60" y="518" class="box-text">09:05 HKT</text>
  <text x="60" y="540" class="box-text">One-day momentum snapshot across equity,</text>
  <text x="60" y="562" class="box-text">dollar, gold, crypto, and vol proxies</text>
  <path class="arrow" d="M 472 518 C 572 518, 990 2952, 1110 2952"/>
  <rect x="42" y="584" rx="16" ry="16" width="430" height="96" fill="#d0ebff" stroke="#1c7ed6" stroke-width="2"/>
  <text x="60" y="610" class="box-title">Cross-Asset Momentum (1D)</text>
  <text x="60" y="632" class="box-text">11:45 HKT</text>
  <text x="60" y="654" class="box-text">One-day momentum snapshot across equity,</text>
  <text x="60" y="676" class="box-text">dollar, gold, crypto, and vol proxies</text>
  <path class="arrow" d="M 472 632 C 572 632, 990 2952, 1110 2952"/>
  <rect x="42" y="698" rx="16" ry="16" width="430" height="96" fill="#d0ebff" stroke="#1c7ed6" stroke-width="2"/>
  <text x="60" y="724" class="box-title">Cross-Asset Momentum (1D)</text>
  <text x="60" y="746" class="box-text">15:45 HKT</text>
  <text x="60" y="768" class="box-text">One-day momentum snapshot across equity,</text>
  <text x="60" y="790" class="box-text">dollar, gold, crypto, and vol proxies</text>
  <path class="arrow" d="M 472 746 C 572 746, 990 2952, 1110 2952"/>
  <rect x="42" y="812" rx="16" ry="16" width="430" height="96" fill="#d0ebff" stroke="#1c7ed6" stroke-width="2"/>
  <text x="60" y="838" class="box-title">Cross-Asset Momentum (1D)</text>
  <text x="60" y="860" class="box-text">21:00 HKT</text>
  <text x="60" y="882" class="box-text">One-day momentum snapshot across equity,</text>
  <text x="60" y="904" class="box-text">dollar, gold, crypto, and vol proxies</text>
  <path class="arrow" d="M 472 860 C 572 860, 990 2952, 1110 2952"/>
  <rect x="42" y="926" rx="16" ry="16" width="430" height="78" fill="#d0ebff" stroke="#1c7ed6" stroke-width="2"/>
  <text x="60" y="952" class="box-title">Morning Digest</text>
  <text x="60" y="974" class="box-text">07:00 HKT</text>
  <text x="60" y="996" class="box-text">Morning synthesis across core sources</text>
  <path class="arrow" d="M 472 965 C 572 965, 990 2952, 1110 2952"/>
  <rect x="42" y="1022" rx="16" ry="16" width="430" height="78" fill="#d0ebff" stroke="#1c7ed6" stroke-width="2"/>
  <text x="60" y="1048" class="box-title">Daily Synthesis</text>
  <text x="60" y="1070" class="box-text">19:00 HKT</text>
  <text x="60" y="1092" class="box-text">Evening multi-source synthesis update</text>
  <path class="arrow" d="M 472 1061 C 572 1061, 990 2952, 1110 2952"/>
  <rect x="42" y="1118" rx="16" ry="16" width="430" height="78" fill="#d0ebff" stroke="#1c7ed6" stroke-width="2"/>
  <text x="60" y="1144" class="box-title">Evening Digest</text>
  <text x="60" y="1166" class="box-text">21:00 HKT</text>
  <text x="60" y="1188" class="box-text">Evening synthesis across core sources</text>
  <path class="arrow" d="M 472 1157 C 572 1157, 990 2952, 1110 2952"/>
  <rect x="42" y="1214" rx="16" ry="16" width="430" height="78" fill="#d0ebff" stroke="#1c7ed6" stroke-width="2"/>
  <text x="60" y="1240" class="box-title">Night Digest</text>
  <text x="60" y="1262" class="box-text">23:30 HKT</text>
  <text x="60" y="1284" class="box-text">Late-night synthesis across core sources</text>
  <path class="arrow" d="M 472 1253 C 572 1253, 990 2952, 1110 2952"/>
  <rect x="42" y="1310" rx="16" ry="16" width="430" height="78" fill="#d0ebff" stroke="#1c7ed6" stroke-width="2"/>
  <text x="60" y="1336" class="box-title">Crypto ETF Flow (AM)</text>
  <text x="60" y="1358" class="box-text">09:00 HKT</text>
  <text x="60" y="1380" class="box-text">Pre-Market Crypto ETF cash flow summary</text>
  <path class="arrow" d="M 472 1349 C 572 1349, 990 2952, 1110 2952"/>
  <rect x="42" y="1406" rx="16" ry="16" width="430" height="78" fill="#d0ebff" stroke="#1c7ed6" stroke-width="2"/>
  <text x="60" y="1432" class="box-title">Crypto ETF Flow (Mid)</text>
  <text x="60" y="1454" class="box-text">11:50 HKT</text>
  <text x="60" y="1476" class="box-text">Midday Crypto ETF cash flow update</text>
  <path class="arrow" d="M 472 1445 C 572 1445, 990 2952, 1110 2952"/>
  <rect x="42" y="1502" rx="16" ry="16" width="430" height="78" fill="#d0ebff" stroke="#1c7ed6" stroke-width="2"/>
  <text x="60" y="1528" class="box-title">Crypto Daily News</text>
  <text x="60" y="1550" class="box-text">10:00 HKT</text>
  <text x="60" y="1572" class="box-text">Top 8 Chinese + English crypto headlines</text>
  <path class="arrow" d="M 472 1541 C 572 1541, 990 2952, 1110 2952"/>
  <rect x="42" y="1598" rx="16" ry="16" width="430" height="78" fill="#d0ebff" stroke="#1c7ed6" stroke-width="2"/>
  <text x="60" y="1624" class="box-title">Crypto Daily News</text>
  <text x="60" y="1646" class="box-text">11:00 HKT</text>
  <text x="60" y="1668" class="box-text">Top 8 Chinese + English crypto headlines</text>
  <path class="arrow" d="M 472 1637 C 572 1637, 990 2952, 1110 2952"/>
  <rect x="42" y="1694" rx="16" ry="16" width="430" height="78" fill="#d0ebff" stroke="#1c7ed6" stroke-width="2"/>
  <text x="60" y="1720" class="box-title">Crypto Daily News</text>
  <text x="60" y="1742" class="box-text">11:40 HKT</text>
  <text x="60" y="1764" class="box-text">Top 8 Chinese + English crypto headlines</text>
  <path class="arrow" d="M 472 1733 C 572 1733, 990 2952, 1110 2952"/>
  <rect x="42" y="1790" rx="16" ry="16" width="430" height="78" fill="#d0ebff" stroke="#1c7ed6" stroke-width="2"/>
  <text x="60" y="1816" class="box-title">DeepVue Dashboard</text>
  <text x="60" y="1838" class="box-text">15:30 HKT</text>
  <text x="60" y="1860" class="box-text">DeepVue market overview and screen brief</text>
  <path class="arrow" d="M 472 1829 C 572 1829, 990 2952, 1110 2952"/>
  <rect x="42" y="1886" rx="16" ry="16" width="430" height="96" fill="#d0ebff" stroke="#1c7ed6" stroke-width="2"/>
  <text x="60" y="1912" class="box-title">Southbound Flow</text>
  <text x="60" y="1934" class="box-text">12:30 HKT</text>
  <text x="60" y="1956" class="box-text">Midday Southbound screenshot and screen</text>
  <text x="60" y="1978" class="box-text">brief</text>
  <path class="arrow" d="M 472 1934 C 572 1934, 990 2952, 1110 2952"/>
  <rect x="42" y="2000" rx="16" ry="16" width="430" height="78" fill="#d0ebff" stroke="#1c7ed6" stroke-width="2"/>
  <text x="60" y="2026" class="box-title">Southbound Flow</text>
  <text x="60" y="2048" class="box-text">15:30 HKT</text>
  <text x="60" y="2070" class="box-text">Southbound screenshot and screen brief</text>
  <path class="arrow" d="M 472 2039 C 572 2039, 990 2952, 1110 2952"/>
  <rect x="42" y="2096" rx="16" ry="16" width="430" height="78" fill="#d0ebff" stroke="#1c7ed6" stroke-width="2"/>
  <text x="60" y="2122" class="box-title">Jarvis Excel Sync AM</text>
  <text x="60" y="2144" class="box-text">10:30 HKT</text>
  <text x="60" y="2166" class="box-text">Excel sync workflow</text>
  <path class="arrow" d="M 472 2135 C 572 2135, 990 2952, 1110 2952"/>
  <rect x="42" y="2192" rx="16" ry="16" width="430" height="78" fill="#d0ebff" stroke="#1c7ed6" stroke-width="2"/>
  <text x="60" y="2218" class="box-title">Jarvis Excel Sync PM</text>
  <text x="60" y="2240" class="box-text">21:00 HKT</text>
  <text x="60" y="2262" class="box-text">Excel sync workflow</text>
  <path class="arrow" d="M 472 2231 C 572 2231, 990 2952, 1110 2952"/>
  <rect x="42" y="2288" rx="16" ry="16" width="430" height="78" fill="#d0ebff" stroke="#1c7ed6" stroke-width="2"/>
  <text x="60" y="2314" class="box-title">Jarvis Excel Sync Late</text>
  <text x="60" y="2336" class="box-text">23:50 HKT</text>
  <text x="60" y="2358" class="box-text">run_excel_sync.bat</text>
  <path class="arrow" d="M 472 2327 C 572 2327, 990 2952, 1110 2952"/>
  <rect x="42" y="2384" rx="16" ry="16" width="430" height="96" fill="#d0ebff" stroke="#1c7ed6" stroke-width="2"/>
  <text x="60" y="2410" class="box-title">Futu HSI Options Signals</text>
  <text x="60" y="2432" class="box-text">09:45 HKT</text>
  <text x="60" y="2454" class="box-text">Real-time HSI options signals after market</text>
  <text x="60" y="2476" class="box-text">open</text>
  <path class="arrow" d="M 472 2432 C 572 2432, 990 2952, 1110 2952"/>
  <rect x="42" y="2498" rx="16" ry="16" width="430" height="96" fill="#d0ebff" stroke="#1c7ed6" stroke-width="2"/>
  <text x="60" y="2524" class="box-title">GDrive Breadth &amp; Regime Snapshot</text>
  <text x="60" y="2546" class="box-text">20:45 HKT</text>
  <text x="60" y="2568" class="box-text">Breadth, stage, regime, and factor snapshot</text>
  <text x="60" y="2590" class="box-text">from the daily GDrive recap</text>
  <path class="arrow" d="M 472 2546 C 572 2546, 990 2952, 1110 2952"/>
  <rect x="42" y="2612" rx="16" ry="16" width="430" height="78" fill="#d0ebff" stroke="#1c7ed6" stroke-width="2"/>
  <text x="60" y="2638" class="box-title">GeoRisk Update</text>
  <text x="60" y="2660" class="box-text">20:00 HKT</text>
  <text x="60" y="2682" class="box-text">Geopolitics risk monitor and Telegram update</text>
  <path class="arrow" d="M 472 2651 C 572 2651, 990 2952, 1110 2952"/>
  <rect x="42" y="2708" rx="16" ry="16" width="430" height="78" fill="#d0ebff" stroke="#1c7ed6" stroke-width="2"/>
  <text x="60" y="2734" class="box-title">HK CBBC Tracker (牛熊證)</text>
  <text x="60" y="2756" class="box-text">09:00 HKT</text>
  <text x="60" y="2778" class="box-text">SG Warrants bull/bear distribution</text>
  <path class="arrow" d="M 472 2747 C 572 2747, 990 2952, 1110 2952"/>
  <rect x="42" y="2804" rx="16" ry="16" width="430" height="96" fill="#d0ebff" stroke="#1c7ed6" stroke-width="2"/>
  <text x="60" y="2830" class="box-title">HSI Options Daily Check</text>
  <text x="60" y="2852" class="box-text">17:00 HKT</text>
  <text x="60" y="2874" class="box-text">End-of-day HSI options volume and put/call</text>
  <text x="60" y="2896" class="box-text">anomaly check</text>
  <path class="arrow" d="M 472 2852 C 572 2852, 990 2952, 1110 2952"/>
  <rect x="42" y="2918" rx="16" ry="16" width="430" height="96" fill="#d0ebff" stroke="#1c7ed6" stroke-width="2"/>
  <text x="60" y="2944" class="box-title">HSI Opening Volume</text>
  <text x="60" y="2966" class="box-text">09:30 HKT</text>
  <text x="60" y="2988" class="box-text">HSI futures opening volume/OI baseline with</text>
  <text x="60" y="3010" class="box-text">Friday spike alert</text>
  <path class="arrow" d="M 472 2966 C 572 2966, 990 2952, 1110 2952"/>
  <rect x="42" y="3032" rx="16" ry="16" width="430" height="78" fill="#d0ebff" stroke="#1c7ed6" stroke-width="2"/>
  <text x="60" y="3058" class="box-title">US Data Calendar</text>
  <text x="60" y="3080" class="box-text">18:30 HKT</text>
  <text x="60" y="3102" class="box-text">Calendar screenshot and macro data table</text>
  <path class="arrow" d="M 472 3071 C 572 3071, 990 2952, 1110 2952"/>
  <rect x="42" y="3128" rx="16" ry="16" width="430" height="78" fill="#d0ebff" stroke="#1c7ed6" stroke-width="2"/>
  <text x="60" y="3154" class="box-title">JARVIS Full</text>
  <text x="60" y="3176" class="box-text">05:00 HKT</text>
  <text x="60" y="3198" class="box-text">Full controller run</text>
  <path class="arrow" d="M 472 3167 C 572 3167, 990 2952, 1110 2952"/>
  <rect x="42" y="3224" rx="16" ry="16" width="430" height="78" fill="#d0ebff" stroke="#1c7ed6" stroke-width="2"/>
  <text x="60" y="3250" class="box-title">JARVIS Light 09:50</text>
  <text x="60" y="3272" class="box-text">09:50 HKT</text>
  <text x="60" y="3294" class="box-text">Light controller run</text>
  <path class="arrow" d="M 472 3263 C 572 3263, 990 2952, 1110 2952"/>
  <rect x="42" y="3320" rx="16" ry="16" width="430" height="78" fill="#d0ebff" stroke="#1c7ed6" stroke-width="2"/>
  <text x="60" y="3346" class="box-title">JARVIS Light 21:00</text>
  <text x="60" y="3368" class="box-text">21:00 HKT</text>
  <text x="60" y="3390" class="box-text">Light controller run</text>
  <path class="arrow" d="M 472 3359 C 572 3359, 990 2952, 1110 2952"/>
  <rect x="42" y="3416" rx="16" ry="16" width="430" height="78" fill="#d0ebff" stroke="#1c7ed6" stroke-width="2"/>
  <text x="60" y="3442" class="box-title">JARVIS Light 22:30</text>
  <text x="60" y="3464" class="box-text">22:30 HKT</text>
  <text x="60" y="3486" class="box-text">Light controller run</text>
  <path class="arrow" d="M 472 3455 C 572 3455, 990 2952, 1110 2952"/>
  <rect x="42" y="3512" rx="16" ry="16" width="430" height="96" fill="#d0ebff" stroke="#1c7ed6" stroke-width="2"/>
  <text x="60" y="3538" class="box-title">Market Storyteller</text>
  <text x="60" y="3560" class="box-text">10:30 HKT</text>
  <text x="60" y="3582" class="box-text">Narrative market summary from storyteller</text>
  <text x="60" y="3604" class="box-text">model</text>
  <path class="arrow" d="M 472 3560 C 572 3560, 990 2952, 1110 2952"/>
  <rect x="42" y="3626" rx="16" ry="16" width="430" height="96" fill="#d0ebff" stroke="#1c7ed6" stroke-width="2"/>
  <text x="60" y="3652" class="box-title">Newsletter</text>
  <text x="60" y="3674" class="box-text">11:00 HKT</text>
  <text x="60" y="3696" class="box-text">Generate newsletter, publish site, and send</text>
  <text x="60" y="3718" class="box-text">the live link to Telegram</text>
  <path class="arrow" d="M 472 3674 C 572 3674, 990 2952, 1110 2952"/>
  <rect x="42" y="3740" rx="16" ry="16" width="430" height="78" fill="#d0ebff" stroke="#1c7ed6" stroke-width="2"/>
  <text x="60" y="3766" class="box-title">Fundman Telegram Ops Listener</text>
  <text x="60" y="3788" class="box-text">00:01 HKT</text>
  <text x="60" y="3810" class="box-text">Telegram operations listener</text>
  <path class="arrow" d="M 472 3779 C 572 3779, 990 2952, 1110 2952"/>
  <rect x="42" y="3836" rx="16" ry="16" width="430" height="78" fill="#d0ebff" stroke="#1c7ed6" stroke-width="2"/>
  <text x="60" y="3862" class="box-title">Telegram Schedule Audit</text>
  <text x="60" y="3884" class="box-text">06:15 HKT</text>
  <text x="60" y="3906" class="box-text">Cross-repo Telegram schedule drift audit</text>
  <path class="arrow" d="M 472 3875 C 572 3875, 990 2952, 1110 2952"/>
  <rect x="42" y="3932" rx="16" ry="16" width="430" height="96" fill="#d0ebff" stroke="#1c7ed6" stroke-width="2"/>
  <text x="60" y="3958" class="box-title">Options &amp; Earnings Alert (21:00)</text>
  <text x="60" y="3980" class="box-text">21:00 HKT</text>
  <text x="60" y="4002" class="box-text">Expiring options contracts and Dash earnings</text>
  <text x="60" y="4024" class="box-text">reminder</text>
  <path class="arrow" d="M 472 3980 C 572 3980, 990 2952, 1110 2952"/>
  <rect x="42" y="4046" rx="16" ry="16" width="430" height="96" fill="#d0ebff" stroke="#1c7ed6" stroke-width="2"/>
  <text x="60" y="4072" class="box-title">Options &amp; Earnings Alert (23:30)</text>
  <text x="60" y="4094" class="box-text">23:30 HKT</text>
  <text x="60" y="4116" class="box-text">Expiring options contracts and Dash earnings</text>
  <text x="60" y="4138" class="box-text">reminder</text>
  <path class="arrow" d="M 472 4094 C 572 4094, 990 2952, 1110 2952"/>
  <rect x="42" y="4160" rx="16" ry="16" width="430" height="78" fill="#d0ebff" stroke="#1c7ed6" stroke-width="2"/>
  <text x="60" y="4186" class="box-title">JARVIS-COT-refresh</text>
  <text x="60" y="4208" class="box-text">08:00 HKT</text>
  <text x="60" y="4230" class="box-text">run_cot_refresh.bat</text>
  <path class="arrow" d="M 472 4199 C 572 4199, 990 2952, 1110 2952"/>
  <rect x="42" y="4256" rx="16" ry="16" width="430" height="78" fill="#d0ebff" stroke="#1c7ed6" stroke-width="2"/>
  <text x="60" y="4282" class="box-title">Ciovacco-Weekly-Feed</text>
  <text x="60" y="4304" class="box-text">14:00 HKT</text>
  <text x="60" y="4326" class="box-text">run_ciovacco_weekly.bat</text>
  <path class="arrow" d="M 472 4295 C 572 4295, 990 2952, 1110 2952"/>
  <rect x="42" y="4352" rx="16" ry="16" width="430" height="78" fill="#d0ebff" stroke="#1c7ed6" stroke-width="2"/>
  <text x="60" y="4378" class="box-title">JARVIS-Reminder-polymarket</text>
  <text x="60" y="4400" class="box-text">20:05 HKT</text>
  <text x="60" y="4422" class="box-text">run_daily_reminder.bat polymarket</text>
  <path class="arrow" d="M 472 4391 C 572 4391, 990 2952, 1110 2952"/>
  <rect x="42" y="4448" rx="16" ry="16" width="430" height="96" fill="#d0ebff" stroke="#1c7ed6" stroke-width="2"/>
  <text x="60" y="4474" class="box-title">BLP-PDF-Title-Pipeline</text>
  <text x="60" y="4496" class="box-text">22:15 HKT</text>
  <text x="60" y="4518" class="box-text">run_blp_title_pipeline.bat --folder</text>
  <text x="60" y="4540" class="box-text">&quot;C:\blp\data&quot; --retag-all</text>
  <path class="arrow" d="M 472 4496 C 572 4496, 990 2952, 1110 2952"/>
  <rect x="42" y="4562" rx="16" ry="16" width="430" height="78" fill="#d0ebff" stroke="#1c7ed6" stroke-width="2"/>
  <text x="60" y="4588" class="box-title">Jarvis-PolymarketMonitor</text>
  <text x="60" y="4610" class="box-text">n/a</text>
  <text x="60" y="4632" class="box-text">run_polymarket_monitor.bat</text>
  <path class="arrow" d="M 472 4601 C 572 4601, 990 2952, 1110 2952"/>
  <rect x="42" y="4658" rx="16" ry="16" width="430" height="78" fill="#d0ebff" stroke="#1c7ed6" stroke-width="2"/>
  <text x="60" y="4684" class="box-title">P-model Check</text>
  <text x="60" y="4706" class="box-text">05:00 HKT</text>
  <text x="60" y="4728" class="box-text">Pre-market PAM / P-model signal check</text>
  <path class="arrow" d="M 472 4697 C 572 4697, 990 2952, 1110 2952"/>
  <rect x="42" y="4754" rx="16" ry="16" width="430" height="78" fill="#d0ebff" stroke="#1c7ed6" stroke-width="2"/>
  <text x="60" y="4780" class="box-title">JARVIS Portfolio Commentary (AM)</text>
  <text x="60" y="4802" class="box-text">09:00 HKT</text>
  <text x="60" y="4824" class="box-text">Portfolio actions vs model signals</text>
  <path class="arrow" d="M 472 4793 C 572 4793, 990 2952, 1110 2952"/>
  <rect x="42" y="4850" rx="16" ry="16" width="430" height="78" fill="#d0ebff" stroke="#1c7ed6" stroke-width="2"/>
  <text x="60" y="4876" class="box-title">JARVIS Portfolio Commentary (PM)</text>
  <text x="60" y="4898" class="box-text">20:30 HKT</text>
  <text x="60" y="4920" class="box-text">Portfolio actions vs model signals</text>
  <path class="arrow" d="M 472 4889 C 572 4889, 990 2952, 1110 2952"/>
  <rect x="24" y="4964" rx="14" ry="14" width="980" height="702" fill="#fff9db" stroke="#fcc419" stroke-width="2"/>
  <text x="40" y="4988" class="lane">Repo-defined / Not Currently Scheduled</text>
  <rect x="42" y="4992" rx="16" ry="16" width="430" height="78" fill="#fff3bf" stroke="#f08c00" stroke-width="2"/>
  <text x="60" y="5018" class="box-title">Jarvis Light</text>
  <text x="60" y="5040" class="box-text">n/a</text>
  <text x="60" y="5062" class="box-text">run_light.bat</text>
  <path class="arrow" d="M 472 5031 C 572 5031, 990 2952, 1110 2952"/>
  <rect x="42" y="5088" rx="16" ry="16" width="430" height="78" fill="#fff3bf" stroke="#f08c00" stroke-width="2"/>
  <text x="60" y="5114" class="box-title">Scrape Cw</text>
  <text x="60" y="5136" class="box-text">10:00 HKT</text>
  <text x="60" y="5158" class="box-text">daily_reminders.py --task scrape_cw</text>
  <path class="arrow" d="M 472 5127 C 572 5127, 990 2952, 1110 2952"/>
  <rect x="42" y="5184" rx="16" ry="16" width="430" height="78" fill="#fff3bf" stroke="#f08c00" stroke-width="2"/>
  <text x="60" y="5210" class="box-title">Northbound</text>
  <text x="60" y="5232" class="box-text">15:30 HKT</text>
  <text x="60" y="5254" class="box-text">daily_reminders.py --task northbound</text>
  <path class="arrow" d="M 472 5223 C 572 5223, 990 2952, 1110 2952"/>
  <rect x="42" y="5280" rx="16" ry="16" width="430" height="78" fill="#fff3bf" stroke="#f08c00" stroke-width="2"/>
  <text x="60" y="5306" class="box-title">Scrape P Model</text>
  <text x="60" y="5328" class="box-text">20:00 HKT</text>
  <text x="60" y="5350" class="box-text">daily_reminders.py --task scrape_p_model</text>
  <path class="arrow" d="M 472 5319 C 572 5319, 990 2952, 1110 2952"/>
  <rect x="42" y="5376" rx="16" ry="16" width="430" height="78" fill="#fff3bf" stroke="#f08c00" stroke-width="2"/>
  <text x="60" y="5402" class="box-title">Scrape All</text>
  <text x="60" y="5424" class="box-text">22:00 HKT</text>
  <text x="60" y="5446" class="box-text">daily_reminders.py --task scrape_all</text>
  <path class="arrow" d="M 472 5415 C 572 5415, 990 2952, 1110 2952"/>
  <rect x="42" y="5472" rx="16" ry="16" width="430" height="78" fill="#fff3bf" stroke="#f08c00" stroke-width="2"/>
  <text x="60" y="5498" class="box-title">Scrape Pam</text>
  <text x="60" y="5520" class="box-text">n/a</text>
  <text x="60" y="5542" class="box-text">alias:scrape_pam-&gt;scrape_p_model</text>
  <path class="arrow" d="M 472 5511 C 572 5511, 990 2952, 1110 2952"/>
  <rect x="42" y="5568" rx="16" ry="16" width="430" height="78" fill="#fff3bf" stroke="#f08c00" stroke-width="2"/>
  <text x="60" y="5594" class="box-title">JARVIS Portfolio Digest</text>
  <text x="60" y="5616" class="box-text">n/a</text>
  <text x="60" y="5638" class="box-text">Consolidated portfolio monitor digest</text>
  <path class="arrow" d="M 472 5607 C 572 5607, 990 2952, 1110 2952"/>
  <rect x="24" y="5682" rx="14" ry="14" width="980" height="126" fill="#f1f3f5" stroke="#adb5bd" stroke-width="2" stroke-dasharray="8 6"/>
  <text x="40" y="5706" class="lane">Disabled</text>
  <rect x="42" y="5710" rx="16" ry="16" width="430" height="78" fill="#f1f3f5" stroke="#868e96" stroke-width="2"/>
  <text x="60" y="5736" class="box-title">Telegram Hub Hourly</text>
  <text x="60" y="5758" class="box-text">16:26 HKT</text>
  <text x="60" y="5780" class="box-text">Hourly cross-repo Telegram digest</text>
  <path class="arrow disabled" d="M 472 5749 C 572 5749, 990 2952, 1110 2952"/>
  <rect x="1110" y="2872" rx="22" ry="22" width="280" height="160" fill="#fff4e6" stroke="#e67700" stroke-width="3"/>
  <text x="1250" y="2928" text-anchor="middle" class="box-title">Telegram Chat</text>
  <text x="1250" y="2958" text-anchor="middle" class="box-text">All alert paths converge here</text>
  <text x="1250" y="2982" text-anchor="middle" class="box-text">Lane color shows live vs repo-only vs disabled</text>
</svg>
