<svg xmlns="http://www.w3.org/2000/svg" width="1500" height="4134" viewBox="0 0 1500 4134">
  <defs>
    <marker id="arrow" markerWidth="10" markerHeight="10" refX="9" refY="5" orient="auto" markerUnits="strokeWidth">
      <path d="M 0 0 L 10 5 L 0 10 z" fill="#495057"/>
    </marker>
    <style>
      .title { font: 700 30px sans-serif; fill: #1e1e1e; }
      .subtitle { font: 16px sans-serif; fill: #495057; }
      .lane { font: 700 18px sans-serif; fill: #1e1e1e; }
      .box-title { font: 700 16px sans-serif; fill: #1e1e1e; }
      .box-text { font: 14px sans-serif; fill: #343a40; }
      .arrow { stroke: #495057; stroke-width: 2; fill: none; marker-end: url(#arrow); }
      .disabled { stroke-dasharray: 8 6; }
    </style>
  </defs>
  <rect x="0" y="0" width="1500" height="4134" fill="#ffffff"/>
  <text x="750" y="42" text-anchor="middle" class="title">Telegram Alert Map</text>
  <text x="750" y="72" text-anchor="middle" class="subtitle">Generated from normalized records. Live and repo-only alerts are separated into lanes.</text>
  <rect x="24" y="118" rx="14" ry="14" width="980" height="2964" fill="#e7f5ff" stroke="#74c0fc" stroke-width="2"/>
  <text x="40" y="142" class="lane">Live Scheduler Tasks</text>
  <rect x="42" y="146" rx="16" ry="16" width="430" height="78" fill="#d0ebff" stroke="#1c7ed6" stroke-width="2"/>
  <text x="60" y="172" class="box-title">Sector Heatmap</text>
  <text x="60" y="194" class="box-text">15:30 HKT</text>
  <text x="60" y="216" class="box-text">Sector screenshot flow and heatmap capture</text>
  <path class="arrow" d="M 472 185 C 572 185, 990 2067, 1110 2067"/>
  <rect x="42" y="242" rx="16" ry="16" width="430" height="78" fill="#d0ebff" stroke="#1c7ed6" stroke-width="2"/>
  <text x="60" y="268" class="box-title">Morning Digest</text>
  <text x="60" y="290" class="box-text">07:00 HKT</text>
  <text x="60" y="312" class="box-text">Morning synthesis across core sources</text>
  <path class="arrow" d="M 472 281 C 572 281, 990 2067, 1110 2067"/>
  <rect x="42" y="338" rx="16" ry="16" width="430" height="78" fill="#d0ebff" stroke="#1c7ed6" stroke-width="2"/>
  <text x="60" y="364" class="box-title">Daily Synthesis</text>
  <text x="60" y="386" class="box-text">19:00 HKT</text>
  <text x="60" y="408" class="box-text">Evening multi-source synthesis update</text>
  <path class="arrow" d="M 472 377 C 572 377, 990 2067, 1110 2067"/>
  <rect x="42" y="434" rx="16" ry="16" width="430" height="78" fill="#d0ebff" stroke="#1c7ed6" stroke-width="2"/>
  <text x="60" y="460" class="box-title">Evening Digest</text>
  <text x="60" y="482" class="box-text">21:00 HKT</text>
  <text x="60" y="504" class="box-text">Evening synthesis across core sources</text>
  <path class="arrow" d="M 472 473 C 572 473, 990 2067, 1110 2067"/>
  <rect x="42" y="530" rx="16" ry="16" width="430" height="78" fill="#d0ebff" stroke="#1c7ed6" stroke-width="2"/>
  <text x="60" y="556" class="box-title">Night Digest</text>
  <text x="60" y="578" class="box-text">23:30 HKT</text>
  <text x="60" y="600" class="box-text">Late-night synthesis across core sources</text>
  <path class="arrow" d="M 472 569 C 572 569, 990 2067, 1110 2067"/>
  <rect x="42" y="626" rx="16" ry="16" width="430" height="78" fill="#d0ebff" stroke="#1c7ed6" stroke-width="2"/>
  <text x="60" y="652" class="box-title">Crypto ETF Flow (AM)</text>
  <text x="60" y="674" class="box-text">09:00 HKT</text>
  <text x="60" y="696" class="box-text">Pre-Market Crypto ETF cash flow summary</text>
  <path class="arrow" d="M 472 665 C 572 665, 990 2067, 1110 2067"/>
  <rect x="42" y="722" rx="16" ry="16" width="430" height="78" fill="#d0ebff" stroke="#1c7ed6" stroke-width="2"/>
  <text x="60" y="748" class="box-title">Crypto ETF Flow (Mid)</text>
  <text x="60" y="770" class="box-text">11:50 HKT</text>
  <text x="60" y="792" class="box-text">Midday Crypto ETF cash flow update</text>
  <path class="arrow" d="M 472 761 C 572 761, 990 2067, 1110 2067"/>
  <rect x="42" y="818" rx="16" ry="16" width="430" height="78" fill="#d0ebff" stroke="#1c7ed6" stroke-width="2"/>
  <text x="60" y="844" class="box-title">Crypto Daily News</text>
  <text x="60" y="866" class="box-text">11:00 HKT</text>
  <text x="60" y="888" class="box-text">Top 8 Chinese + English crypto headlines</text>
  <path class="arrow" d="M 472 857 C 572 857, 990 2067, 1110 2067"/>
  <rect x="42" y="914" rx="16" ry="16" width="430" height="78" fill="#d0ebff" stroke="#1c7ed6" stroke-width="2"/>
  <text x="60" y="940" class="box-title">DeepVue Dashboard</text>
  <text x="60" y="962" class="box-text">15:30 HKT</text>
  <text x="60" y="984" class="box-text">DeepVue market overview and screen brief</text>
  <path class="arrow" d="M 472 953 C 572 953, 990 2067, 1110 2067"/>
  <rect x="42" y="1010" rx="16" ry="16" width="430" height="78" fill="#d0ebff" stroke="#1c7ed6" stroke-width="2"/>
  <text x="60" y="1036" class="box-title">Southbound Flow</text>
  <text x="60" y="1058" class="box-text">15:30 HKT</text>
  <text x="60" y="1080" class="box-text">Southbound screenshot and screen brief</text>
  <path class="arrow" d="M 472 1049 C 572 1049, 990 2067, 1110 2067"/>
  <rect x="42" y="1106" rx="16" ry="16" width="430" height="78" fill="#d0ebff" stroke="#1c7ed6" stroke-width="2"/>
  <text x="60" y="1132" class="box-title">Jarvis Excel Sync AM</text>
  <text x="60" y="1154" class="box-text">10:30 HKT</text>
  <text x="60" y="1176" class="box-text">Excel sync workflow</text>
  <path class="arrow" d="M 472 1145 C 572 1145, 990 2067, 1110 2067"/>
  <rect x="42" y="1202" rx="16" ry="16" width="430" height="78" fill="#d0ebff" stroke="#1c7ed6" stroke-width="2"/>
  <text x="60" y="1228" class="box-title">Jarvis Excel Sync PM</text>
  <text x="60" y="1250" class="box-text">21:00 HKT</text>
  <text x="60" y="1272" class="box-text">Excel sync workflow</text>
  <path class="arrow" d="M 472 1241 C 572 1241, 990 2067, 1110 2067"/>
  <rect x="42" y="1298" rx="16" ry="16" width="430" height="78" fill="#d0ebff" stroke="#1c7ed6" stroke-width="2"/>
  <text x="60" y="1324" class="box-title">Jarvis Excel Sync Late</text>
  <text x="60" y="1346" class="box-text">23:50 HKT</text>
  <text x="60" y="1368" class="box-text">run_excel_sync.bat</text>
  <path class="arrow" d="M 472 1337 C 572 1337, 990 2067, 1110 2067"/>
  <rect x="42" y="1394" rx="16" ry="16" width="430" height="78" fill="#d0ebff" stroke="#1c7ed6" stroke-width="2"/>
  <text x="60" y="1420" class="box-title">GeoRisk Update</text>
  <text x="60" y="1442" class="box-text">20:00 HKT</text>
  <text x="60" y="1464" class="box-text">Geopolitics risk monitor and Telegram update</text>
  <path class="arrow" d="M 472 1433 C 572 1433, 990 2067, 1110 2067"/>
  <rect x="42" y="1490" rx="16" ry="16" width="430" height="78" fill="#d0ebff" stroke="#1c7ed6" stroke-width="2"/>
  <text x="60" y="1516" class="box-title">HK CBBC Tracker (牛熊證)</text>
  <text x="60" y="1538" class="box-text">09:00 HKT</text>
  <text x="60" y="1560" class="box-text">SG Warrants bull/bear distribution</text>
  <path class="arrow" d="M 472 1529 C 572 1529, 990 2067, 1110 2067"/>
  <rect x="42" y="1586" rx="16" ry="16" width="430" height="78" fill="#d0ebff" stroke="#1c7ed6" stroke-width="2"/>
  <text x="60" y="1612" class="box-title">US Data Calendar</text>
  <text x="60" y="1634" class="box-text">18:30 HKT</text>
  <text x="60" y="1656" class="box-text">Calendar screenshot and macro data table</text>
  <path class="arrow" d="M 472 1625 C 572 1625, 990 2067, 1110 2067"/>
  <rect x="42" y="1682" rx="16" ry="16" width="430" height="78" fill="#d0ebff" stroke="#1c7ed6" stroke-width="2"/>
  <text x="60" y="1708" class="box-title">JARVIS Full</text>
  <text x="60" y="1730" class="box-text">05:00 HKT</text>
  <text x="60" y="1752" class="box-text">Full controller run</text>
  <path class="arrow" d="M 472 1721 C 572 1721, 990 2067, 1110 2067"/>
  <rect x="42" y="1778" rx="16" ry="16" width="430" height="78" fill="#d0ebff" stroke="#1c7ed6" stroke-width="2"/>
  <text x="60" y="1804" class="box-title">JARVIS Light 09:50</text>
  <text x="60" y="1826" class="box-text">09:50 HKT</text>
  <text x="60" y="1848" class="box-text">Light controller run</text>
  <path class="arrow" d="M 472 1817 C 572 1817, 990 2067, 1110 2067"/>
  <rect x="42" y="1874" rx="16" ry="16" width="430" height="78" fill="#d0ebff" stroke="#1c7ed6" stroke-width="2"/>
  <text x="60" y="1900" class="box-title">JARVIS Light 21:00</text>
  <text x="60" y="1922" class="box-text">21:00 HKT</text>
  <text x="60" y="1944" class="box-text">Light controller run</text>
  <path class="arrow" d="M 472 1913 C 572 1913, 990 2067, 1110 2067"/>
  <rect x="42" y="1970" rx="16" ry="16" width="430" height="78" fill="#d0ebff" stroke="#1c7ed6" stroke-width="2"/>
  <text x="60" y="1996" class="box-title">JARVIS Light 22:30</text>
  <text x="60" y="2018" class="box-text">22:30 HKT</text>
  <text x="60" y="2040" class="box-text">Light controller run</text>
  <path class="arrow" d="M 472 2009 C 572 2009, 990 2067, 1110 2067"/>
  <rect x="42" y="2066" rx="16" ry="16" width="430" height="78" fill="#d0ebff" stroke="#1c7ed6" stroke-width="2"/>
  <text x="60" y="2092" class="box-title">Excel Reminder</text>
  <text x="60" y="2114" class="box-text">10:00 HKT</text>
  <text x="60" y="2136" class="box-text">Manual Excel and data reminder</text>
  <path class="arrow" d="M 472 2105 C 572 2105, 990 2067, 1110 2067"/>
  <rect x="42" y="2162" rx="16" ry="16" width="430" height="96" fill="#d0ebff" stroke="#1c7ed6" stroke-width="2"/>
  <text x="60" y="2188" class="box-title">Market Storyteller</text>
  <text x="60" y="2210" class="box-text">10:30 HKT</text>
  <text x="60" y="2232" class="box-text">Narrative market summary from storyteller</text>
  <text x="60" y="2254" class="box-text">model</text>
  <path class="arrow" d="M 472 2210 C 572 2210, 990 2067, 1110 2067"/>
  <rect x="42" y="2276" rx="16" ry="16" width="430" height="78" fill="#d0ebff" stroke="#1c7ed6" stroke-width="2"/>
  <text x="60" y="2302" class="box-title">Fundman Telegram Ops Listener</text>
  <text x="60" y="2324" class="box-text">00:01 HKT</text>
  <text x="60" y="2346" class="box-text">Telegram operations listener</text>
  <path class="arrow" d="M 472 2315 C 572 2315, 990 2067, 1110 2067"/>
  <rect x="42" y="2372" rx="16" ry="16" width="430" height="78" fill="#d0ebff" stroke="#1c7ed6" stroke-width="2"/>
  <text x="60" y="2398" class="box-title">Telegram Schedule Audit</text>
  <text x="60" y="2420" class="box-text">06:15 HKT</text>
  <text x="60" y="2442" class="box-text">Cross-repo Telegram schedule drift audit</text>
  <path class="arrow" d="M 472 2411 C 572 2411, 990 2067, 1110 2067"/>
  <rect x="42" y="2468" rx="16" ry="16" width="430" height="96" fill="#d0ebff" stroke="#1c7ed6" stroke-width="2"/>
  <text x="60" y="2494" class="box-title">Options &amp; Earnings Alert (21:00)</text>
  <text x="60" y="2516" class="box-text">21:00 HKT</text>
  <text x="60" y="2538" class="box-text">Expiring options contracts and Dash earnings</text>
  <text x="60" y="2560" class="box-text">reminder</text>
  <path class="arrow" d="M 472 2516 C 572 2516, 990 2067, 1110 2067"/>
  <rect x="42" y="2582" rx="16" ry="16" width="430" height="96" fill="#d0ebff" stroke="#1c7ed6" stroke-width="2"/>
  <text x="60" y="2608" class="box-title">Options &amp; Earnings Alert (23:30)</text>
  <text x="60" y="2630" class="box-text">23:30 HKT</text>
  <text x="60" y="2652" class="box-text">Expiring options contracts and Dash earnings</text>
  <text x="60" y="2674" class="box-text">reminder</text>
  <path class="arrow" d="M 472 2630 C 572 2630, 990 2067, 1110 2067"/>
  <rect x="42" y="2696" rx="16" ry="16" width="430" height="78" fill="#d0ebff" stroke="#1c7ed6" stroke-width="2"/>
  <text x="60" y="2722" class="box-title">JARVIS-Reminder-polymarket</text>
  <text x="60" y="2744" class="box-text">20:05 HKT</text>
  <text x="60" y="2766" class="box-text">run_daily_reminder.bat polymarket</text>
  <path class="arrow" d="M 472 2735 C 572 2735, 990 2067, 1110 2067"/>
  <rect x="42" y="2792" rx="16" ry="16" width="430" height="78" fill="#d0ebff" stroke="#1c7ed6" stroke-width="2"/>
  <text x="60" y="2818" class="box-title">P-model Check</text>
  <text x="60" y="2840" class="box-text">05:00 HKT</text>
  <text x="60" y="2862" class="box-text">Pre-market PAM / P-model signal check</text>
  <path class="arrow" d="M 472 2831 C 572 2831, 990 2067, 1110 2067"/>
  <rect x="42" y="2888" rx="16" ry="16" width="430" height="78" fill="#d0ebff" stroke="#1c7ed6" stroke-width="2"/>
  <text x="60" y="2914" class="box-title">JARVIS Portfolio Commentary (AM)</text>
  <text x="60" y="2936" class="box-text">09:00 HKT</text>
  <text x="60" y="2958" class="box-text">Portfolio actions vs model signals</text>
  <path class="arrow" d="M 472 2927 C 572 2927, 990 2067, 1110 2067"/>
  <rect x="42" y="2984" rx="16" ry="16" width="430" height="78" fill="#d0ebff" stroke="#1c7ed6" stroke-width="2"/>
  <text x="60" y="3010" class="box-title">JARVIS Portfolio Commentary (PM)</text>
  <text x="60" y="3032" class="box-text">20:30 HKT</text>
  <text x="60" y="3054" class="box-text">Portfolio actions vs model signals</text>
  <path class="arrow" d="M 472 3023 C 572 3023, 990 2067, 1110 2067"/>
  <rect x="24" y="3098" rx="14" ry="14" width="980" height="798" fill="#fff9db" stroke="#fcc419" stroke-width="2"/>
  <text x="40" y="3122" class="lane">Repo-defined / Not Currently Scheduled</text>
  <rect x="42" y="3126" rx="16" ry="16" width="430" height="78" fill="#fff3bf" stroke="#f08c00" stroke-width="2"/>
  <text x="60" y="3152" class="box-title">Jarvis Light</text>
  <text x="60" y="3174" class="box-text">n/a</text>
  <text x="60" y="3196" class="box-text">run_light.bat</text>
  <path class="arrow" d="M 472 3165 C 572 3165, 990 2067, 1110 2067"/>
  <rect x="42" y="3222" rx="16" ry="16" width="430" height="78" fill="#fff3bf" stroke="#f08c00" stroke-width="2"/>
  <text x="60" y="3248" class="box-title">Scrape Cw</text>
  <text x="60" y="3270" class="box-text">10:00 HKT</text>
  <text x="60" y="3292" class="box-text">daily_reminders.py --task scrape_cw</text>
  <path class="arrow" d="M 472 3261 C 572 3261, 990 2067, 1110 2067"/>
  <rect x="42" y="3318" rx="16" ry="16" width="430" height="78" fill="#fff3bf" stroke="#f08c00" stroke-width="2"/>
  <text x="60" y="3344" class="box-title">Newsletter</text>
  <text x="60" y="3366" class="box-text">11:00 HKT</text>
  <text x="60" y="3388" class="box-text">daily_reminders.py --task newsletter</text>
  <path class="arrow" d="M 472 3357 C 572 3357, 990 2067, 1110 2067"/>
  <rect x="42" y="3414" rx="16" ry="16" width="430" height="78" fill="#fff3bf" stroke="#f08c00" stroke-width="2"/>
  <text x="60" y="3440" class="box-title">Northbound</text>
  <text x="60" y="3462" class="box-text">15:30 HKT</text>
  <text x="60" y="3484" class="box-text">daily_reminders.py --task northbound</text>
  <path class="arrow" d="M 472 3453 C 572 3453, 990 2067, 1110 2067"/>
  <rect x="42" y="3510" rx="16" ry="16" width="430" height="78" fill="#fff3bf" stroke="#f08c00" stroke-width="2"/>
  <text x="60" y="3536" class="box-title">Scrape P Model</text>
  <text x="60" y="3558" class="box-text">20:00 HKT</text>
  <text x="60" y="3580" class="box-text">daily_reminders.py --task scrape_p_model</text>
  <path class="arrow" d="M 472 3549 C 572 3549, 990 2067, 1110 2067"/>
  <rect x="42" y="3606" rx="16" ry="16" width="430" height="78" fill="#fff3bf" stroke="#f08c00" stroke-width="2"/>
  <text x="60" y="3632" class="box-title">Scrape All</text>
  <text x="60" y="3654" class="box-text">22:00 HKT</text>
  <text x="60" y="3676" class="box-text">daily_reminders.py --task scrape_all</text>
  <path class="arrow" d="M 472 3645 C 572 3645, 990 2067, 1110 2067"/>
  <rect x="42" y="3702" rx="16" ry="16" width="430" height="78" fill="#fff3bf" stroke="#f08c00" stroke-width="2"/>
  <text x="60" y="3728" class="box-title">Scrape Pam</text>
  <text x="60" y="3750" class="box-text">n/a</text>
  <text x="60" y="3772" class="box-text">alias:scrape_pam-&gt;scrape_p_model</text>
  <path class="arrow" d="M 472 3741 C 572 3741, 990 2067, 1110 2067"/>
  <rect x="42" y="3798" rx="16" ry="16" width="430" height="78" fill="#fff3bf" stroke="#f08c00" stroke-width="2"/>
  <text x="60" y="3824" class="box-title">JARVIS Portfolio Digest</text>
  <text x="60" y="3846" class="box-text">n/a</text>
  <text x="60" y="3868" class="box-text">Consolidated portfolio monitor digest</text>
  <path class="arrow" d="M 472 3837 C 572 3837, 990 2067, 1110 2067"/>
  <rect x="24" y="3912" rx="14" ry="14" width="980" height="126" fill="#f1f3f5" stroke="#adb5bd" stroke-width="2" stroke-dasharray="8 6"/>
  <text x="40" y="3936" class="lane">Disabled</text>
  <rect x="42" y="3940" rx="16" ry="16" width="430" height="78" fill="#f1f3f5" stroke="#868e96" stroke-width="2"/>
  <text x="60" y="3966" class="box-title">Telegram Hub Hourly</text>
  <text x="60" y="3988" class="box-text">16:26 HKT</text>
  <text x="60" y="4010" class="box-text">Hourly cross-repo Telegram digest</text>
  <path class="arrow disabled" d="M 472 3979 C 572 3979, 990 2067, 1110 2067"/>
  <rect x="1110" y="1987" rx="22" ry="22" width="280" height="160" fill="#fff4e6" stroke="#e67700" stroke-width="3"/>
  <text x="1250" y="2043" text-anchor="middle" class="box-title">Telegram Chat</text>
  <text x="1250" y="2073" text-anchor="middle" class="box-text">All alert paths converge here</text>
  <text x="1250" y="2097" text-anchor="middle" class="box-text">Lane color shows live vs repo-only vs disabled</text>
</svg>
