<svg xmlns="http://www.w3.org/2000/svg" width="1500" height="4590" viewBox="0 0 1500 4590">
  <defs>
    <marker id="arrow" markerWidth="10" markerHeight="10" refX="9" refY="5" orient="auto" markerUnits="strokeWidth">
      <path d="M 0 0 L 10 5 L 0 10 z" fill="#495057"/>
    </marker>
    <style>
      .title { font: 700 30px sans-serif; fill: #1e1e1e; }
      .subtitle { font: 16px sans-serif; fill: #495057; }
      .lane { font: 700 18px sans-serif; fill: #1e1e1e; }
      .box-title { font: 700 16px sans-serif; fill: #1e1e1e; }
      .box-text { font: 14px sans-serif; fill: #343a40; }
      .arrow { stroke: #495057; stroke-width: 2; fill: none; marker-end: url(#arrow); }
      .disabled { stroke-dasharray: 8 6; }
    </style>
  </defs>
  <rect x="0" y="0" width="1500" height="4590" fill="#ffffff"/>
  <text x="750" y="42" text-anchor="middle" class="title">Telegram Alert Map</text>
  <text x="750" y="72" text-anchor="middle" class="subtitle">Generated from normalized records. Live and repo-only alerts are separated into lanes.</text>
  <rect x="24" y="118" rx="14" ry="14" width="980" height="3420" fill="#e7f5ff" stroke="#74c0fc" stroke-width="2"/>
  <text x="40" y="142" class="lane">Live Scheduler Tasks</text>
  <rect x="42" y="146" rx="16" ry="16" width="430" height="78" fill="#d0ebff" stroke="#1c7ed6" stroke-width="2"/>
  <text x="60" y="172" class="box-title">Sector Heatmap</text>
  <text x="60" y="194" class="box-text">15:30 HKT</text>
  <text x="60" y="216" class="box-text">Sector screenshot flow and heatmap capture</text>
  <path class="arrow" d="M 472 185 C 572 185, 990 2295, 1110 2295"/>
  <rect x="42" y="242" rx="16" ry="16" width="430" height="78" fill="#d0ebff" stroke="#1c7ed6" stroke-width="2"/>
  <text x="60" y="268" class="box-title">Morning Digest</text>
  <text x="60" y="290" class="box-text">07:00 HKT</text>
  <text x="60" y="312" class="box-text">Morning synthesis across core sources</text>
  <path class="arrow" d="M 472 281 C 572 281, 990 2295, 1110 2295"/>
  <rect x="42" y="338" rx="16" ry="16" width="430" height="78" fill="#d0ebff" stroke="#1c7ed6" stroke-width="2"/>
  <text x="60" y="364" class="box-title">Daily Synthesis</text>
  <text x="60" y="386" class="box-text">19:00 HKT</text>
  <text x="60" y="408" class="box-text">Evening multi-source synthesis update</text>
  <path class="arrow" d="M 472 377 C 572 377, 990 2295, 1110 2295"/>
  <rect x="42" y="434" rx="16" ry="16" width="430" height="78" fill="#d0ebff" stroke="#1c7ed6" stroke-width="2"/>
  <text x="60" y="460" class="box-title">Evening Digest</text>
  <text x="60" y="482" class="box-text">21:00 HKT</text>
  <text x="60" y="504" class="box-text">Evening synthesis across core sources</text>
  <path class="arrow" d="M 472 473 C 572 473, 990 2295, 1110 2295"/>
  <rect x="42" y="530" rx="16" ry="16" width="430" height="78" fill="#d0ebff" stroke="#1c7ed6" stroke-width="2"/>
  <text x="60" y="556" class="box-title">Night Digest</text>
  <text x="60" y="578" class="box-text">23:30 HKT</text>
  <text x="60" y="600" class="box-text">Late-night synthesis across core sources</text>
  <path class="arrow" d="M 472 569 C 572 569, 990 2295, 1110 2295"/>
  <rect x="42" y="626" rx="16" ry="16" width="430" height="78" fill="#d0ebff" stroke="#1c7ed6" stroke-width="2"/>
  <text x="60" y="652" class="box-title">Crypto ETF Flow (AM)</text>
  <text x="60" y="674" class="box-text">09:00 HKT</text>
  <text x="60" y="696" class="box-text">Pre-Market Crypto ETF cash flow summary</text>
  <path class="arrow" d="M 472 665 C 572 665, 990 2295, 1110 2295"/>
  <rect x="42" y="722" rx="16" ry="16" width="430" height="78" fill="#d0ebff" stroke="#1c7ed6" stroke-width="2"/>
  <text x="60" y="748" class="box-title">Crypto ETF Flow (Mid)</text>
  <text x="60" y="770" class="box-text">11:50 HKT</text>
  <text x="60" y="792" class="box-text">Midday Crypto ETF cash flow update</text>
  <path class="arrow" d="M 472 761 C 572 761, 990 2295, 1110 2295"/>
  <rect x="42" y="818" rx="16" ry="16" width="430" height="78" fill="#d0ebff" stroke="#1c7ed6" stroke-width="2"/>
  <text x="60" y="844" class="box-title">Crypto Daily News</text>
  <text x="60" y="866" class="box-text">11:00 HKT</text>
  <text x="60" y="888" class="box-text">Top 8 Chinese + English crypto headlines</text>
  <path class="arrow" d="M 472 857 C 572 857, 990 2295, 1110 2295"/>
  <rect x="42" y="914" rx="16" ry="16" width="430" height="78" fill="#d0ebff" stroke="#1c7ed6" stroke-width="2"/>
  <text x="60" y="940" class="box-title">DeepVue Dashboard</text>
  <text x="60" y="962" class="box-text">15:30 HKT</text>
  <text x="60" y="984" class="box-text">DeepVue market overview and screen brief</text>
  <path class="arrow" d="M 472 953 C 572 953, 990 2295, 1110 2295"/>
  <rect x="42" y="1010" rx="16" ry="16" width="430" height="78" fill="#d0ebff" stroke="#1c7ed6" stroke-width="2"/>
  <text x="60" y="1036" class="box-title">Southbound Flow</text>
  <text x="60" y="1058" class="box-text">15:30 HKT</text>
  <text x="60" y="1080" class="box-text">Southbound screenshot and screen brief</text>
  <path class="arrow" d="M 472 1049 C 572 1049, 990 2295, 1110 2295"/>
  <rect x="42" y="1106" rx="16" ry="16" width="430" height="78" fill="#d0ebff" stroke="#1c7ed6" stroke-width="2"/>
  <text x="60" y="1132" class="box-title">Jarvis Excel Sync AM</text>
  <text x="60" y="1154" class="box-text">10:30 HKT</text>
  <text x="60" y="1176" class="box-text">Excel sync workflow</text>
  <path class="arrow" d="M 472 1145 C 572 1145, 990 2295, 1110 2295"/>
  <rect x="42" y="1202" rx="16" ry="16" width="430" height="78" fill="#d0ebff" stroke="#1c7ed6" stroke-width="2"/>
  <text x="60" y="1228" class="box-title">Jarvis Excel Sync PM</text>
  <text x="60" y="1250" class="box-text">21:00 HKT</text>
  <text x="60" y="1272" class="box-text">Excel sync workflow</text>
  <path class="arrow" d="M 472 1241 C 572 1241, 990 2295, 1110 2295"/>
  <rect x="42" y="1298" rx="16" ry="16" width="430" height="78" fill="#d0ebff" stroke="#1c7ed6" stroke-width="2"/>
  <text x="60" y="1324" class="box-title">Jarvis Excel Sync Late</text>
  <text x="60" y="1346" class="box-text">23:50 HKT</text>
  <text x="60" y="1368" class="box-text">run_excel_sync.bat</text>
  <path class="arrow" d="M 472 1337 C 572 1337, 990 2295, 1110 2295"/>
  <rect x="42" y="1394" rx="16" ry="16" width="430" height="96" fill="#d0ebff" stroke="#1c7ed6" stroke-width="2"/>
  <text x="60" y="1420" class="box-title">Futu HSI Options Signals</text>
  <text x="60" y="1442" class="box-text">09:45 HKT</text>
  <text x="60" y="1464" class="box-text">Real-time HSI options signals after market</text>
  <text x="60" y="1486" class="box-text">open</text>
  <path class="arrow" d="M 472 1442 C 572 1442, 990 2295, 1110 2295"/>
  <rect x="42" y="1508" rx="16" ry="16" width="430" height="78" fill="#d0ebff" stroke="#1c7ed6" stroke-width="2"/>
  <text x="60" y="1534" class="box-title">GeoRisk Update</text>
  <text x="60" y="1556" class="box-text">20:00 HKT</text>
  <text x="60" y="1578" class="box-text">Geopolitics risk monitor and Telegram update</text>
  <path class="arrow" d="M 472 1547 C 572 1547, 990 2295, 1110 2295"/>
  <rect x="42" y="1604" rx="16" ry="16" width="430" height="78" fill="#d0ebff" stroke="#1c7ed6" stroke-width="2"/>
  <text x="60" y="1630" class="box-title">HK CBBC Tracker (牛熊證)</text>
  <text x="60" y="1652" class="box-text">09:00 HKT</text>
  <text x="60" y="1674" class="box-text">SG Warrants bull/bear distribution</text>
  <path class="arrow" d="M 472 1643 C 572 1643, 990 2295, 1110 2295"/>
  <rect x="42" y="1700" rx="16" ry="16" width="430" height="96" fill="#d0ebff" stroke="#1c7ed6" stroke-width="2"/>
  <text x="60" y="1726" class="box-title">HSI Options Daily Check</text>
  <text x="60" y="1748" class="box-text">17:00 HKT</text>
  <text x="60" y="1770" class="box-text">End-of-day HSI options volume and put/call</text>
  <text x="60" y="1792" class="box-text">anomaly check</text>
  <path class="arrow" d="M 472 1748 C 572 1748, 990 2295, 1110 2295"/>
  <rect x="42" y="1814" rx="16" ry="16" width="430" height="96" fill="#d0ebff" stroke="#1c7ed6" stroke-width="2"/>
  <text x="60" y="1840" class="box-title">HSI Opening Volume</text>
  <text x="60" y="1862" class="box-text">09:30 HKT</text>
  <text x="60" y="1884" class="box-text">HSI futures opening volume/OI baseline with</text>
  <text x="60" y="1906" class="box-text">Friday spike alert</text>
  <path class="arrow" d="M 472 1862 C 572 1862, 990 2295, 1110 2295"/>
  <rect x="42" y="1928" rx="16" ry="16" width="430" height="78" fill="#d0ebff" stroke="#1c7ed6" stroke-width="2"/>
  <text x="60" y="1954" class="box-title">US Data Calendar</text>
  <text x="60" y="1976" class="box-text">18:30 HKT</text>
  <text x="60" y="1998" class="box-text">Calendar screenshot and macro data table</text>
  <path class="arrow" d="M 472 1967 C 572 1967, 990 2295, 1110 2295"/>
  <rect x="42" y="2024" rx="16" ry="16" width="430" height="78" fill="#d0ebff" stroke="#1c7ed6" stroke-width="2"/>
  <text x="60" y="2050" class="box-title">JARVIS Full</text>
  <text x="60" y="2072" class="box-text">05:00 HKT</text>
  <text x="60" y="2094" class="box-text">Full controller run</text>
  <path class="arrow" d="M 472 2063 C 572 2063, 990 2295, 1110 2295"/>
  <rect x="42" y="2120" rx="16" ry="16" width="430" height="78" fill="#d0ebff" stroke="#1c7ed6" stroke-width="2"/>
  <text x="60" y="2146" class="box-title">JARVIS Light 09:50</text>
  <text x="60" y="2168" class="box-text">09:50 HKT</text>
  <text x="60" y="2190" class="box-text">Light controller run</text>
  <path class="arrow" d="M 472 2159 C 572 2159, 990 2295, 1110 2295"/>
  <rect x="42" y="2216" rx="16" ry="16" width="430" height="78" fill="#d0ebff" stroke="#1c7ed6" stroke-width="2"/>
  <text x="60" y="2242" class="box-title">JARVIS Light 21:00</text>
  <text x="60" y="2264" class="box-text">21:00 HKT</text>
  <text x="60" y="2286" class="box-text">Light controller run</text>
  <path class="arrow" d="M 472 2255 C 572 2255, 990 2295, 1110 2295"/>
  <rect x="42" y="2312" rx="16" ry="16" width="430" height="78" fill="#d0ebff" stroke="#1c7ed6" stroke-width="2"/>
  <text x="60" y="2338" class="box-title">JARVIS Light 22:30</text>
  <text x="60" y="2360" class="box-text">22:30 HKT</text>
  <text x="60" y="2382" class="box-text">Light controller run</text>
  <path class="arrow" d="M 472 2351 C 572 2351, 990 2295, 1110 2295"/>
  <rect x="42" y="2408" rx="16" ry="16" width="430" height="78" fill="#d0ebff" stroke="#1c7ed6" stroke-width="2"/>
  <text x="60" y="2434" class="box-title">Excel Reminder</text>
  <text x="60" y="2456" class="box-text">10:00 HKT</text>
  <text x="60" y="2478" class="box-text">Manual Excel and data reminder</text>
  <path class="arrow" d="M 472 2447 C 572 2447, 990 2295, 1110 2295"/>
  <rect x="42" y="2504" rx="16" ry="16" width="430" height="96" fill="#d0ebff" stroke="#1c7ed6" stroke-width="2"/>
  <text x="60" y="2530" class="box-title">Market Storyteller</text>
  <text x="60" y="2552" class="box-text">10:30 HKT</text>
  <text x="60" y="2574" class="box-text">Narrative market summary from storyteller</text>
  <text x="60" y="2596" class="box-text">model</text>
  <path class="arrow" d="M 472 2552 C 572 2552, 990 2295, 1110 2295"/>
  <rect x="42" y="2618" rx="16" ry="16" width="430" height="78" fill="#d0ebff" stroke="#1c7ed6" stroke-width="2"/>
  <text x="60" y="2644" class="box-title">Fundman Telegram Ops Listener</text>
  <text x="60" y="2666" class="box-text">00:01 HKT</text>
  <text x="60" y="2688" class="box-text">Telegram operations listener</text>
  <path class="arrow" d="M 472 2657 C 572 2657, 990 2295, 1110 2295"/>
  <rect x="42" y="2714" rx="16" ry="16" width="430" height="78" fill="#d0ebff" stroke="#1c7ed6" stroke-width="2"/>
  <text x="60" y="2740" class="box-title">Telegram Schedule Audit</text>
  <text x="60" y="2762" class="box-text">06:15 HKT</text>
  <text x="60" y="2784" class="box-text">Cross-repo Telegram schedule drift audit</text>
  <path class="arrow" d="M 472 2753 C 572 2753, 990 2295, 1110 2295"/>
  <rect x="42" y="2810" rx="16" ry="16" width="430" height="96" fill="#d0ebff" stroke="#1c7ed6" stroke-width="2"/>
  <text x="60" y="2836" class="box-title">Options &amp; Earnings Alert (21:00)</text>
  <text x="60" y="2858" class="box-text">21:00 HKT</text>
  <text x="60" y="2880" class="box-text">Expiring options contracts and Dash earnings</text>
  <text x="60" y="2902" class="box-text">reminder</text>
  <path class="arrow" d="M 472 2858 C 572 2858, 990 2295, 1110 2295"/>
  <rect x="42" y="2924" rx="16" ry="16" width="430" height="96" fill="#d0ebff" stroke="#1c7ed6" stroke-width="2"/>
  <text x="60" y="2950" class="box-title">Options &amp; Earnings Alert (23:30)</text>
  <text x="60" y="2972" class="box-text">23:30 HKT</text>
  <text x="60" y="2994" class="box-text">Expiring options contracts and Dash earnings</text>
  <text x="60" y="3016" class="box-text">reminder</text>
  <path class="arrow" d="M 472 2972 C 572 2972, 990 2295, 1110 2295"/>
  <rect x="42" y="3038" rx="16" ry="16" width="430" height="78" fill="#d0ebff" stroke="#1c7ed6" stroke-width="2"/>
  <text x="60" y="3064" class="box-title">JARVIS-Reminder-polymarket</text>
  <text x="60" y="3086" class="box-text">20:05 HKT</text>
  <text x="60" y="3108" class="box-text">run_daily_reminder.bat polymarket</text>
  <path class="arrow" d="M 472 3077 C 572 3077, 990 2295, 1110 2295"/>
  <rect x="42" y="3134" rx="16" ry="16" width="430" height="96" fill="#d0ebff" stroke="#1c7ed6" stroke-width="2"/>
  <text x="60" y="3160" class="box-title">BLP-PDF-Title-Pipeline</text>
  <text x="60" y="3182" class="box-text">22:15 HKT</text>
  <text x="60" y="3204" class="box-text">run_blp_title_pipeline.bat --folder</text>
  <text x="60" y="3226" class="box-text">&quot;C:\blp\data&quot; --retag-all</text>
  <path class="arrow" d="M 472 3182 C 572 3182, 990 2295, 1110 2295"/>
  <rect x="42" y="3248" rx="16" ry="16" width="430" height="78" fill="#d0ebff" stroke="#1c7ed6" stroke-width="2"/>
  <text x="60" y="3274" class="box-title">P-model Check</text>
  <text x="60" y="3296" class="box-text">05:00 HKT</text>
  <text x="60" y="3318" class="box-text">Pre-market PAM / P-model signal check</text>
  <path class="arrow" d="M 472 3287 C 572 3287, 990 2295, 1110 2295"/>
  <rect x="42" y="3344" rx="16" ry="16" width="430" height="78" fill="#d0ebff" stroke="#1c7ed6" stroke-width="2"/>
  <text x="60" y="3370" class="box-title">JARVIS Portfolio Commentary (AM)</text>
  <text x="60" y="3392" class="box-text">09:00 HKT</text>
  <text x="60" y="3414" class="box-text">Portfolio actions vs model signals</text>
  <path class="arrow" d="M 472 3383 C 572 3383, 990 2295, 1110 2295"/>
  <rect x="42" y="3440" rx="16" ry="16" width="430" height="78" fill="#d0ebff" stroke="#1c7ed6" stroke-width="2"/>
  <text x="60" y="3466" class="box-title">JARVIS Portfolio Commentary (PM)</text>
  <text x="60" y="3488" class="box-text">20:30 HKT</text>
  <text x="60" y="3510" class="box-text">Portfolio actions vs model signals</text>
  <path class="arrow" d="M 472 3479 C 572 3479, 990 2295, 1110 2295"/>
  <rect x="24" y="3554" rx="14" ry="14" width="980" height="798" fill="#fff9db" stroke="#fcc419" stroke-width="2"/>
  <text x="40" y="3578" class="lane">Repo-defined / Not Currently Scheduled</text>
  <rect x="42" y="3582" rx="16" ry="16" width="430" height="78" fill="#fff3bf" stroke="#f08c00" stroke-width="2"/>
  <text x="60" y="3608" class="box-title">Jarvis Light</text>
  <text x="60" y="3630" class="box-text">n/a</text>
  <text x="60" y="3652" class="box-text">run_light.bat</text>
  <path class="arrow" d="M 472 3621 C 572 3621, 990 2295, 1110 2295"/>
  <rect x="42" y="3678" rx="16" ry="16" width="430" height="78" fill="#fff3bf" stroke="#f08c00" stroke-width="2"/>
  <text x="60" y="3704" class="box-title">Scrape Cw</text>
  <text x="60" y="3726" class="box-text">10:00 HKT</text>
  <text x="60" y="3748" class="box-text">daily_reminders.py --task scrape_cw</text>
  <path class="arrow" d="M 472 3717 C 572 3717, 990 2295, 1110 2295"/>
  <rect x="42" y="3774" rx="16" ry="16" width="430" height="78" fill="#fff3bf" stroke="#f08c00" stroke-width="2"/>
  <text x="60" y="3800" class="box-title">Newsletter</text>
  <text x="60" y="3822" class="box-text">11:00 HKT</text>
  <text x="60" y="3844" class="box-text">daily_reminders.py --task newsletter</text>
  <path class="arrow" d="M 472 3813 C 572 3813, 990 2295, 1110 2295"/>
  <rect x="42" y="3870" rx="16" ry="16" width="430" height="78" fill="#fff3bf" stroke="#f08c00" stroke-width="2"/>
  <text x="60" y="3896" class="box-title">Northbound</text>
  <text x="60" y="3918" class="box-text">15:30 HKT</text>
  <text x="60" y="3940" class="box-text">daily_reminders.py --task northbound</text>
  <path class="arrow" d="M 472 3909 C 572 3909, 990 2295, 1110 2295"/>
  <rect x="42" y="3966" rx="16" ry="16" width="430" height="78" fill="#fff3bf" stroke="#f08c00" stroke-width="2"/>
  <text x="60" y="3992" class="box-title">Scrape P Model</text>
  <text x="60" y="4014" class="box-text">20:00 HKT</text>
  <text x="60" y="4036" class="box-text">daily_reminders.py --task scrape_p_model</text>
  <path class="arrow" d="M 472 4005 C 572 4005, 990 2295, 1110 2295"/>
  <rect x="42" y="4062" rx="16" ry="16" width="430" height="78" fill="#fff3bf" stroke="#f08c00" stroke-width="2"/>
  <text x="60" y="4088" class="box-title">Scrape All</text>
  <text x="60" y="4110" class="box-text">22:00 HKT</text>
  <text x="60" y="4132" class="box-text">daily_reminders.py --task scrape_all</text>
  <path class="arrow" d="M 472 4101 C 572 4101, 990 2295, 1110 2295"/>
  <rect x="42" y="4158" rx="16" ry="16" width="430" height="78" fill="#fff3bf" stroke="#f08c00" stroke-width="2"/>
  <text x="60" y="4184" class="box-title">Scrape Pam</text>
  <text x="60" y="4206" class="box-text">n/a</text>
  <text x="60" y="4228" class="box-text">alias:scrape_pam-&gt;scrape_p_model</text>
  <path class="arrow" d="M 472 4197 C 572 4197, 990 2295, 1110 2295"/>
  <rect x="42" y="4254" rx="16" ry="16" width="430" height="78" fill="#fff3bf" stroke="#f08c00" stroke-width="2"/>
  <text x="60" y="4280" class="box-title">JARVIS Portfolio Digest</text>
  <text x="60" y="4302" class="box-text">n/a</text>
  <text x="60" y="4324" class="box-text">Consolidated portfolio monitor digest</text>
  <path class="arrow" d="M 472 4293 C 572 4293, 990 2295, 1110 2295"/>
  <rect x="24" y="4368" rx="14" ry="14" width="980" height="126" fill="#f1f3f5" stroke="#adb5bd" stroke-width="2" stroke-dasharray="8 6"/>
  <text x="40" y="4392" class="lane">Disabled</text>
  <rect x="42" y="4396" rx="16" ry="16" width="430" height="78" fill="#f1f3f5" stroke="#868e96" stroke-width="2"/>
  <text x="60" y="4422" class="box-title">Telegram Hub Hourly</text>
  <text x="60" y="4444" class="box-text">16:26 HKT</text>
  <text x="60" y="4466" class="box-text">Hourly cross-repo Telegram digest</text>
  <path class="arrow disabled" d="M 472 4435 C 572 4435, 990 2295, 1110 2295"/>
  <rect x="1110" y="2215" rx="22" ry="22" width="280" height="160" fill="#fff4e6" stroke="#e67700" stroke-width="3"/>
  <text x="1250" y="2271" text-anchor="middle" class="box-title">Telegram Chat</text>
  <text x="1250" y="2301" text-anchor="middle" class="box-text">All alert paths converge here</text>
  <text x="1250" y="2325" text-anchor="middle" class="box-text">Lane color shows live vs repo-only vs disabled</text>
</svg>
