<svg xmlns="http://www.w3.org/2000/svg" width="1500" height="9492" viewBox="0 0 1500 9492">
  <defs>
    <marker id="arrow" markerWidth="10" markerHeight="10" refX="9" refY="5" orient="auto" markerUnits="strokeWidth">
      <path d="M 0 0 L 10 5 L 0 10 z" fill="#495057"/>
    </marker>
    <style>
      .title { font: 700 30px sans-serif; fill: #1e1e1e; }
      .subtitle { font: 16px sans-serif; fill: #495057; }
      .lane { font: 700 18px sans-serif; fill: #1e1e1e; }
      .box-title { font: 700 16px sans-serif; fill: #1e1e1e; }
      .box-text { font: 14px sans-serif; fill: #343a40; }
      .arrow { stroke: #495057; stroke-width: 2; fill: none; marker-end: url(#arrow); }
      .disabled { stroke-dasharray: 8 6; }
    </style>
  </defs>
  <rect x="0" y="0" width="1500" height="9492" fill="#ffffff"/>
  <text x="750" y="42" text-anchor="middle" class="title">Telegram Alert Map</text>
  <text x="750" y="72" text-anchor="middle" class="subtitle">Generated from normalized records. Live and repo-only alerts are separated into lanes.</text>
  <rect x="24" y="118" rx="14" ry="14" width="980" height="8226" fill="#e7f5ff" stroke="#74c0fc" stroke-width="2"/>
  <text x="40" y="142" class="lane">Live Scheduler Tasks</text>
  <rect x="42" y="146" rx="16" ry="16" width="430" height="78" fill="#d0ebff" stroke="#1c7ed6" stroke-width="2"/>
  <text x="60" y="172" class="box-title">Sector Heatmap</text>
  <text x="60" y="194" class="box-text">15:30 HKT</text>
  <text x="60" y="216" class="box-text">Sector screenshot flow and heatmap capture</text>
  <path class="arrow" d="M 472 185 C 572 185, 990 4746, 1110 4746"/>
  <rect x="42" y="242" rx="16" ry="16" width="430" height="96" fill="#d0ebff" stroke="#1c7ed6" stroke-width="2"/>
  <text x="60" y="268" class="box-title">Commodity Model - Live Overlay Report</text>
  <text x="60" y="290" class="box-text">09:45 HKT</text>
  <text x="60" y="312" class="box-text">Fresh gold, silver, copper, and DXY live-</text>
  <text x="60" y="334" class="box-text">overlay summary</text>
  <path class="arrow" d="M 472 290 C 572 290, 990 4746, 1110 4746"/>
  <rect x="42" y="356" rx="16" ry="16" width="430" height="96" fill="#d0ebff" stroke="#1c7ed6" stroke-width="2"/>
  <text x="60" y="382" class="box-title">Commodity Model - Live Overlay Report</text>
  <text x="60" y="404" class="box-text">21:45 HKT</text>
  <text x="60" y="426" class="box-text">Fresh gold, silver, copper, and DXY live-</text>
  <text x="60" y="448" class="box-text">overlay summary</text>
  <path class="arrow" d="M 472 404 C 572 404, 990 4746, 1110 4746"/>
  <rect x="42" y="470" rx="16" ry="16" width="430" height="96" fill="#d0ebff" stroke="#1c7ed6" stroke-width="2"/>
  <text x="60" y="496" class="box-title">Cross-Asset Momentum (1D)</text>
  <text x="60" y="518" class="box-text">01:00 HKT, 09:05 HKT</text>
  <text x="60" y="540" class="box-text">One-day momentum snapshot across equity,</text>
  <text x="60" y="562" class="box-text">dollar, gold, crypto, and vol proxies</text>
  <path class="arrow" d="M 472 518 C 572 518, 990 4746, 1110 4746"/>
  <rect x="42" y="584" rx="16" ry="16" width="430" height="96" fill="#d0ebff" stroke="#1c7ed6" stroke-width="2"/>
  <text x="60" y="610" class="box-title">Cross-Asset Momentum (1D)</text>
  <text x="60" y="632" class="box-text">11:45 HKT</text>
  <text x="60" y="654" class="box-text">One-day momentum snapshot across equity,</text>
  <text x="60" y="676" class="box-text">dollar, gold, crypto, and vol proxies</text>
  <path class="arrow" d="M 472 632 C 572 632, 990 4746, 1110 4746"/>
  <rect x="42" y="698" rx="16" ry="16" width="430" height="96" fill="#d0ebff" stroke="#1c7ed6" stroke-width="2"/>
  <text x="60" y="724" class="box-title">Cross-Asset Momentum (1D)</text>
  <text x="60" y="746" class="box-text">15:45 HKT</text>
  <text x="60" y="768" class="box-text">One-day momentum snapshot across equity,</text>
  <text x="60" y="790" class="box-text">dollar, gold, crypto, and vol proxies</text>
  <path class="arrow" d="M 472 746 C 572 746, 990 4746, 1110 4746"/>
  <rect x="42" y="812" rx="16" ry="16" width="430" height="96" fill="#d0ebff" stroke="#1c7ed6" stroke-width="2"/>
  <text x="60" y="838" class="box-title">Cross-Asset Momentum (1D)</text>
  <text x="60" y="860" class="box-text">21:00 HKT</text>
  <text x="60" y="882" class="box-text">One-day momentum snapshot across equity,</text>
  <text x="60" y="904" class="box-text">dollar, gold, crypto, and vol proxies</text>
  <path class="arrow" d="M 472 860 C 572 860, 990 4746, 1110 4746"/>
  <rect x="42" y="926" rx="16" ry="16" width="430" height="78" fill="#d0ebff" stroke="#1c7ed6" stroke-width="2"/>
  <text x="60" y="952" class="box-title">Morning Digest</text>
  <text x="60" y="974" class="box-text">07:00 HKT</text>
  <text x="60" y="996" class="box-text">Morning synthesis across core sources</text>
  <path class="arrow" d="M 472 965 C 572 965, 990 4746, 1110 4746"/>
  <rect x="42" y="1022" rx="16" ry="16" width="430" height="78" fill="#d0ebff" stroke="#1c7ed6" stroke-width="2"/>
  <text x="60" y="1048" class="box-title">Daily Synthesis</text>
  <text x="60" y="1070" class="box-text">19:00 HKT</text>
  <text x="60" y="1092" class="box-text">Evening multi-source synthesis update</text>
  <path class="arrow" d="M 472 1061 C 572 1061, 990 4746, 1110 4746"/>
  <rect x="42" y="1118" rx="16" ry="16" width="430" height="78" fill="#d0ebff" stroke="#1c7ed6" stroke-width="2"/>
  <text x="60" y="1144" class="box-title">Evening Digest</text>
  <text x="60" y="1166" class="box-text">21:00 HKT</text>
  <text x="60" y="1188" class="box-text">Evening synthesis across core sources</text>
  <path class="arrow" d="M 472 1157 C 572 1157, 990 4746, 1110 4746"/>
  <rect x="42" y="1214" rx="16" ry="16" width="430" height="78" fill="#d0ebff" stroke="#1c7ed6" stroke-width="2"/>
  <text x="60" y="1240" class="box-title">Night Digest</text>
  <text x="60" y="1262" class="box-text">23:30 HKT</text>
  <text x="60" y="1284" class="box-text">Late-night synthesis across core sources</text>
  <path class="arrow" d="M 472 1253 C 572 1253, 990 4746, 1110 4746"/>
  <rect x="42" y="1310" rx="16" ry="16" width="430" height="78" fill="#d0ebff" stroke="#1c7ed6" stroke-width="2"/>
  <text x="60" y="1336" class="box-title">Crypto ETF Flow (AM)</text>
  <text x="60" y="1358" class="box-text">09:00 HKT</text>
  <text x="60" y="1380" class="box-text">Pre-Market Crypto ETF cash flow summary</text>
  <path class="arrow" d="M 472 1349 C 572 1349, 990 4746, 1110 4746"/>
  <rect x="42" y="1406" rx="16" ry="16" width="430" height="78" fill="#d0ebff" stroke="#1c7ed6" stroke-width="2"/>
  <text x="60" y="1432" class="box-title">Crypto ETF Flow (Mid)</text>
  <text x="60" y="1454" class="box-text">11:50 HKT</text>
  <text x="60" y="1476" class="box-text">Midday Crypto ETF cash flow update</text>
  <path class="arrow" d="M 472 1445 C 572 1445, 990 4746, 1110 4746"/>
  <rect x="42" y="1502" rx="16" ry="16" width="430" height="78" fill="#d0ebff" stroke="#1c7ed6" stroke-width="2"/>
  <text x="60" y="1528" class="box-title">Crypto Daily News</text>
  <text x="60" y="1550" class="box-text">10:00 HKT</text>
  <text x="60" y="1572" class="box-text">Top 8 Chinese + English crypto headlines</text>
  <path class="arrow" d="M 472 1541 C 572 1541, 990 4746, 1110 4746"/>
  <rect x="42" y="1598" rx="16" ry="16" width="430" height="78" fill="#d0ebff" stroke="#1c7ed6" stroke-width="2"/>
  <text x="60" y="1624" class="box-title">Crypto Daily News</text>
  <text x="60" y="1646" class="box-text">11:00 HKT</text>
  <text x="60" y="1668" class="box-text">Top 8 Chinese + English crypto headlines</text>
  <path class="arrow" d="M 472 1637 C 572 1637, 990 4746, 1110 4746"/>
  <rect x="42" y="1694" rx="16" ry="16" width="430" height="78" fill="#d0ebff" stroke="#1c7ed6" stroke-width="2"/>
  <text x="60" y="1720" class="box-title">Crypto Daily News</text>
  <text x="60" y="1742" class="box-text">11:40 HKT</text>
  <text x="60" y="1764" class="box-text">Top 8 Chinese + English crypto headlines</text>
  <path class="arrow" d="M 472 1733 C 572 1733, 990 4746, 1110 4746"/>
  <rect x="42" y="1790" rx="16" ry="16" width="430" height="78" fill="#d0ebff" stroke="#1c7ed6" stroke-width="2"/>
  <text x="60" y="1816" class="box-title">DeepVue Dashboard</text>
  <text x="60" y="1838" class="box-text">15:30 HKT</text>
  <text x="60" y="1860" class="box-text">DeepVue market overview and screen brief</text>
  <path class="arrow" d="M 472 1829 C 572 1829, 990 4746, 1110 4746"/>
  <rect x="42" y="1886" rx="16" ry="16" width="430" height="96" fill="#d0ebff" stroke="#1c7ed6" stroke-width="2"/>
  <text x="60" y="1912" class="box-title">Pre-Catalyst Earnings Alerts</text>
  <text x="60" y="1934" class="box-text">09:08 HKT, 21:03 HKT</text>
  <text x="60" y="1956" class="box-text">T-4 to T-10 earnings entry window and Fed</text>
  <text x="60" y="1978" class="box-text">tone shift checks</text>
  <path class="arrow" d="M 472 1934 C 572 1934, 990 4746, 1110 4746"/>
  <rect x="42" y="2000" rx="16" ry="16" width="430" height="78" fill="#d0ebff" stroke="#1c7ed6" stroke-width="2"/>
  <text x="60" y="2026" class="box-title">Pre-Catalyst Alert</text>
  <text x="60" y="2048" class="box-text">18:29 HKT</text>
  <text x="60" y="2070" class="box-text">Single pre-catalyst earnings alert wrapper</text>
  <path class="arrow" d="M 472 2039 C 572 2039, 990 4746, 1110 4746"/>
  <rect x="42" y="2096" rx="16" ry="16" width="430" height="96" fill="#d0ebff" stroke="#1c7ed6" stroke-width="2"/>
  <text x="60" y="2122" class="box-title">Pre-Earnings Composite Signal</text>
  <text x="60" y="2144" class="box-text">18:00 HKT</text>
  <text x="60" y="2166" class="box-text">Pre-earnings PCR, analyst, sentiment, and</text>
  <text x="60" y="2188" class="box-text">momentum composite</text>
  <path class="arrow" d="M 472 2144 C 572 2144, 990 4746, 1110 4746"/>
  <rect x="42" y="2210" rx="16" ry="16" width="430" height="96" fill="#d0ebff" stroke="#1c7ed6" stroke-width="2"/>
  <text x="60" y="2236" class="box-title">Southbound Flow</text>
  <text x="60" y="2258" class="box-text">12:30 HKT</text>
  <text x="60" y="2280" class="box-text">Midday Southbound screenshot and screen</text>
  <text x="60" y="2302" class="box-text">brief</text>
  <path class="arrow" d="M 472 2258 C 572 2258, 990 4746, 1110 4746"/>
  <rect x="42" y="2324" rx="16" ry="16" width="430" height="78" fill="#d0ebff" stroke="#1c7ed6" stroke-width="2"/>
  <text x="60" y="2350" class="box-title">Southbound Flow</text>
  <text x="60" y="2372" class="box-text">15:30 HKT</text>
  <text x="60" y="2394" class="box-text">Southbound screenshot and screen brief</text>
  <path class="arrow" d="M 472 2363 C 572 2363, 990 4746, 1110 4746"/>
  <rect x="42" y="2420" rx="16" ry="16" width="430" height="78" fill="#d0ebff" stroke="#1c7ed6" stroke-width="2"/>
  <text x="60" y="2446" class="box-title">Jarvis Excel Sync AM</text>
  <text x="60" y="2468" class="box-text">12:10 HKT, 10:30 HKT</text>
  <text x="60" y="2490" class="box-text">Excel sync workflow</text>
  <path class="arrow" d="M 472 2459 C 572 2459, 990 4746, 1110 4746"/>
  <rect x="42" y="2516" rx="16" ry="16" width="430" height="78" fill="#d0ebff" stroke="#1c7ed6" stroke-width="2"/>
  <text x="60" y="2542" class="box-title">Jarvis Excel Sync Late</text>
  <text x="60" y="2564" class="box-text">23:50 HKT</text>
  <text x="60" y="2586" class="box-text">run_excel_sync.bat</text>
  <path class="arrow" d="M 472 2555 C 572 2555, 990 4746, 1110 4746"/>
  <rect x="42" y="2612" rx="16" ry="16" width="430" height="96" fill="#d0ebff" stroke="#1c7ed6" stroke-width="2"/>
  <text x="60" y="2638" class="box-title">Futu HSI Options Signals</text>
  <text x="60" y="2660" class="box-text">09:45 HKT</text>
  <text x="60" y="2682" class="box-text">Real-time HSI options signals after market</text>
  <text x="60" y="2704" class="box-text">open</text>
  <path class="arrow" d="M 472 2660 C 572 2660, 990 4746, 1110 4746"/>
  <rect x="42" y="2726" rx="16" ry="16" width="430" height="96" fill="#d0ebff" stroke="#1c7ed6" stroke-width="2"/>
  <text x="60" y="2752" class="box-title">GDrive Breadth &amp; Regime Snapshot</text>
  <text x="60" y="2774" class="box-text">20:45 HKT</text>
  <text x="60" y="2796" class="box-text">Breadth, stage, regime, and factor snapshot</text>
  <text x="60" y="2818" class="box-text">from the daily GDrive recap</text>
  <path class="arrow" d="M 472 2774 C 572 2774, 990 4746, 1110 4746"/>
  <rect x="42" y="2840" rx="16" ry="16" width="430" height="78" fill="#d0ebff" stroke="#1c7ed6" stroke-width="2"/>
  <text x="60" y="2866" class="box-title">GeoRisk Update</text>
  <text x="60" y="2888" class="box-text">20:00 HKT</text>
  <text x="60" y="2910" class="box-text">Geopolitics risk monitor and Telegram update</text>
  <path class="arrow" d="M 472 2879 C 572 2879, 990 4746, 1110 4746"/>
  <rect x="42" y="2936" rx="16" ry="16" width="430" height="78" fill="#d0ebff" stroke="#1c7ed6" stroke-width="2"/>
  <text x="60" y="2962" class="box-title">HK CBBC Tracker (牛熊證)</text>
  <text x="60" y="2984" class="box-text">09:00 HKT</text>
  <text x="60" y="3006" class="box-text">SG Warrants bull/bear distribution</text>
  <path class="arrow" d="M 472 2975 C 572 2975, 990 4746, 1110 4746"/>
  <rect x="42" y="3032" rx="16" ry="16" width="430" height="96" fill="#d0ebff" stroke="#1c7ed6" stroke-width="2"/>
  <text x="60" y="3058" class="box-title">HSI Options Daily Check</text>
  <text x="60" y="3080" class="box-text">17:00 HKT</text>
  <text x="60" y="3102" class="box-text">End-of-day HSI options volume and put/call</text>
  <text x="60" y="3124" class="box-text">anomaly check</text>
  <path class="arrow" d="M 472 3080 C 572 3080, 990 4746, 1110 4746"/>
  <rect x="42" y="3146" rx="16" ry="16" width="430" height="96" fill="#d0ebff" stroke="#1c7ed6" stroke-width="2"/>
  <text x="60" y="3172" class="box-title">HSI Opening Volume</text>
  <text x="60" y="3194" class="box-text">09:30 HKT</text>
  <text x="60" y="3216" class="box-text">HSI futures opening volume/OI baseline with</text>
  <text x="60" y="3238" class="box-text">Friday spike alert</text>
  <path class="arrow" d="M 472 3194 C 572 3194, 990 4746, 1110 4746"/>
  <rect x="42" y="3260" rx="16" ry="16" width="430" height="78" fill="#d0ebff" stroke="#1c7ed6" stroke-width="2"/>
  <text x="60" y="3286" class="box-title">US Data Calendar</text>
  <text x="60" y="3308" class="box-text">18:30 HKT</text>
  <text x="60" y="3330" class="box-text">Calendar screenshot and macro data table</text>
  <path class="arrow" d="M 472 3299 C 572 3299, 990 4746, 1110 4746"/>
  <rect x="42" y="3356" rx="16" ry="16" width="430" height="78" fill="#d0ebff" stroke="#1c7ed6" stroke-width="2"/>
  <text x="60" y="3382" class="box-title">JARVIS Full</text>
  <text x="60" y="3404" class="box-text">05:00 HKT</text>
  <text x="60" y="3426" class="box-text">Full controller run</text>
  <path class="arrow" d="M 472 3395 C 572 3395, 990 4746, 1110 4746"/>
  <rect x="42" y="3452" rx="16" ry="16" width="430" height="78" fill="#d0ebff" stroke="#1c7ed6" stroke-width="2"/>
  <text x="60" y="3478" class="box-title">JARVIS Light 09:50</text>
  <text x="60" y="3500" class="box-text">09:50 HKT</text>
  <text x="60" y="3522" class="box-text">Light controller run</text>
  <path class="arrow" d="M 472 3491 C 572 3491, 990 4746, 1110 4746"/>
  <rect x="42" y="3548" rx="16" ry="16" width="430" height="78" fill="#d0ebff" stroke="#1c7ed6" stroke-width="2"/>
  <text x="60" y="3574" class="box-title">JARVIS Light 21:00</text>
  <text x="60" y="3596" class="box-text">21:00 HKT</text>
  <text x="60" y="3618" class="box-text">Light controller run</text>
  <path class="arrow" d="M 472 3587 C 572 3587, 990 4746, 1110 4746"/>
  <rect x="42" y="3644" rx="16" ry="16" width="430" height="78" fill="#d0ebff" stroke="#1c7ed6" stroke-width="2"/>
  <text x="60" y="3670" class="box-title">JARVIS Light 22:30</text>
  <text x="60" y="3692" class="box-text">22:30 HKT</text>
  <text x="60" y="3714" class="box-text">Light controller run</text>
  <path class="arrow" d="M 472 3683 C 572 3683, 990 4746, 1110 4746"/>
  <rect x="42" y="3740" rx="16" ry="16" width="430" height="96" fill="#d0ebff" stroke="#1c7ed6" stroke-width="2"/>
  <text x="60" y="3766" class="box-title">Market Storyteller</text>
  <text x="60" y="3788" class="box-text">10:30 HKT</text>
  <text x="60" y="3810" class="box-text">Narrative market summary from storyteller</text>
  <text x="60" y="3832" class="box-text">model</text>
  <path class="arrow" d="M 472 3788 C 572 3788, 990 4746, 1110 4746"/>
  <rect x="42" y="3854" rx="16" ry="16" width="430" height="78" fill="#d0ebff" stroke="#1c7ed6" stroke-width="2"/>
  <text x="60" y="3880" class="box-title">Sentiment Scan (01:33)</text>
  <text x="60" y="3902" class="box-text">01:33 HKT</text>
  <text x="60" y="3924" class="box-text">Futu/OpenD watchlist sentiment scan</text>
  <path class="arrow" d="M 472 3893 C 572 3893, 990 4746, 1110 4746"/>
  <rect x="42" y="3950" rx="16" ry="16" width="430" height="78" fill="#d0ebff" stroke="#1c7ed6" stroke-width="2"/>
  <text x="60" y="3976" class="box-title">Sentiment Scan (10:00)</text>
  <text x="60" y="3998" class="box-text">10:00 HKT</text>
  <text x="60" y="4020" class="box-text">Futu/OpenD watchlist sentiment scan</text>
  <path class="arrow" d="M 472 3989 C 572 3989, 990 4746, 1110 4746"/>
  <rect x="42" y="4046" rx="16" ry="16" width="430" height="78" fill="#d0ebff" stroke="#1c7ed6" stroke-width="2"/>
  <text x="60" y="4072" class="box-title">Sentiment Scan (11:46)</text>
  <text x="60" y="4094" class="box-text">11:46 HKT</text>
  <text x="60" y="4116" class="box-text">Futu/OpenD watchlist sentiment scan</text>
  <path class="arrow" d="M 472 4085 C 572 4085, 990 4746, 1110 4746"/>
  <rect x="42" y="4142" rx="16" ry="16" width="430" height="78" fill="#d0ebff" stroke="#1c7ed6" stroke-width="2"/>
  <text x="60" y="4168" class="box-title">Sentiment Scan (15:15)</text>
  <text x="60" y="4190" class="box-text">15:15 HKT</text>
  <text x="60" y="4212" class="box-text">Futu/OpenD watchlist sentiment scan</text>
  <path class="arrow" d="M 472 4181 C 572 4181, 990 4746, 1110 4746"/>
  <rect x="42" y="4238" rx="16" ry="16" width="430" height="78" fill="#d0ebff" stroke="#1c7ed6" stroke-width="2"/>
  <text x="60" y="4264" class="box-title">Sentiment Scan (23:10)</text>
  <text x="60" y="4286" class="box-text">23:10 HKT</text>
  <text x="60" y="4308" class="box-text">Futu/OpenD watchlist sentiment scan</text>
  <path class="arrow" d="M 472 4277 C 572 4277, 990 4746, 1110 4746"/>
  <rect x="42" y="4334" rx="16" ry="16" width="430" height="96" fill="#d0ebff" stroke="#1c7ed6" stroke-width="2"/>
  <text x="60" y="4360" class="box-title">Newsletter</text>
  <text x="60" y="4382" class="box-text">11:00 HKT</text>
  <text x="60" y="4404" class="box-text">Generate newsletter, publish site, and send</text>
  <text x="60" y="4426" class="box-text">the live link to Telegram</text>
  <path class="arrow" d="M 472 4382 C 572 4382, 990 4746, 1110 4746"/>
  <rect x="42" y="4448" rx="16" ry="16" width="430" height="78" fill="#d0ebff" stroke="#1c7ed6" stroke-width="2"/>
  <text x="60" y="4474" class="box-title">Fundman Telegram Ops Listener</text>
  <text x="60" y="4496" class="box-text">00:01 HKT</text>
  <text x="60" y="4518" class="box-text">Telegram operations listener</text>
  <path class="arrow" d="M 472 4487 C 572 4487, 990 4746, 1110 4746"/>
  <rect x="42" y="4544" rx="16" ry="16" width="430" height="78" fill="#d0ebff" stroke="#1c7ed6" stroke-width="2"/>
  <text x="60" y="4570" class="box-title">Telegram Schedule Audit</text>
  <text x="60" y="4592" class="box-text">06:05 HKT, 15:40 HKT, 22:35 HKT</text>
  <text x="60" y="4614" class="box-text">Cross-repo Telegram schedule drift audit</text>
  <path class="arrow" d="M 472 4583 C 572 4583, 990 4746, 1110 4746"/>
  <rect x="42" y="4640" rx="16" ry="16" width="430" height="96" fill="#d0ebff" stroke="#1c7ed6" stroke-width="2"/>
  <text x="60" y="4666" class="box-title">Options &amp; Earnings Alert (21:00)</text>
  <text x="60" y="4688" class="box-text">21:00 HKT</text>
  <text x="60" y="4710" class="box-text">Expiring options contracts and Dash earnings</text>
  <text x="60" y="4732" class="box-text">reminder</text>
  <path class="arrow" d="M 472 4688 C 572 4688, 990 4746, 1110 4746"/>
  <rect x="42" y="4754" rx="16" ry="16" width="430" height="96" fill="#d0ebff" stroke="#1c7ed6" stroke-width="2"/>
  <text x="60" y="4780" class="box-title">Options &amp; Earnings Alert (23:30)</text>
  <text x="60" y="4802" class="box-text">23:30 HKT</text>
  <text x="60" y="4824" class="box-text">Expiring options contracts and Dash earnings</text>
  <text x="60" y="4846" class="box-text">reminder</text>
  <path class="arrow" d="M 472 4802 C 572 4802, 990 4746, 1110 4746"/>
  <rect x="42" y="4868" rx="16" ry="16" width="430" height="78" fill="#d0ebff" stroke="#1c7ed6" stroke-width="2"/>
  <text x="60" y="4894" class="box-title">Jarvis InfoHub Crawl 0115</text>
  <text x="60" y="4916" class="box-text">01:15 HKT</text>
  <text x="60" y="4938" class="box-text">run_infohub_crawl_scheduled.ps1</text>
  <path class="arrow" d="M 472 4907 C 572 4907, 990 4746, 1110 4746"/>
  <rect x="42" y="4964" rx="16" ry="16" width="430" height="78" fill="#d0ebff" stroke="#1c7ed6" stroke-width="2"/>
  <text x="60" y="4990" class="box-title">Jarvis Sector Universe Expand</text>
  <text x="60" y="5012" class="box-text">08:00 HKT</text>
  <text x="60" y="5034" class="box-text">expand_sector_universe.py --daily</text>
  <path class="arrow" d="M 472 5003 C 572 5003, 990 4746, 1110 4746"/>
  <rect x="42" y="5060" rx="16" ry="16" width="430" height="78" fill="#d0ebff" stroke="#1c7ed6" stroke-width="2"/>
  <text x="60" y="5086" class="box-title">Jarvis-InfoHub-0830</text>
  <text x="60" y="5108" class="box-text">08:30 HKT</text>
  <text x="60" y="5130" class="box-text">run_infohub_bridge.bat</text>
  <path class="arrow" d="M 472 5099 C 572 5099, 990 4746, 1110 4746"/>
  <rect x="42" y="5156" rx="16" ry="16" width="430" height="78" fill="#d0ebff" stroke="#1c7ed6" stroke-width="2"/>
  <text x="60" y="5182" class="box-title">Jarvis Shadow Sleeve Monday</text>
  <text x="60" y="5204" class="box-text">09:00 HKT</text>
  <text x="60" y="5226" class="box-text">run_shadow_sleeve_check.bat</text>
  <path class="arrow" d="M 472 5195 C 572 5195, 990 4746, 1110 4746"/>
  <rect x="42" y="5252" rx="16" ry="16" width="430" height="78" fill="#d0ebff" stroke="#1c7ed6" stroke-width="2"/>
  <text x="60" y="5278" class="box-title">Jarvis Shadow Sleeve Wednesday</text>
  <text x="60" y="5300" class="box-text">09:00 HKT</text>
  <text x="60" y="5322" class="box-text">run_shadow_sleeve_check.bat</text>
  <path class="arrow" d="M 472 5291 C 572 5291, 990 4746, 1110 4746"/>
  <rect x="42" y="5348" rx="16" ry="16" width="430" height="78" fill="#d0ebff" stroke="#1c7ed6" stroke-width="2"/>
  <text x="60" y="5374" class="box-title">Jarvis Sector Momentum 0905</text>
  <text x="60" y="5396" class="box-text">09:05 HKT</text>
  <text x="60" y="5418" class="box-text">send_sector_momentum.py</text>
  <path class="arrow" d="M 472 5387 C 572 5387, 990 4746, 1110 4746"/>
  <rect x="42" y="5444" rx="16" ry="16" width="430" height="78" fill="#d0ebff" stroke="#1c7ed6" stroke-width="2"/>
  <text x="60" y="5470" class="box-title">Jarvis Sector Stock Momentum 0915</text>
  <text x="60" y="5492" class="box-text">09:15 HKT</text>
  <text x="60" y="5514" class="box-text">send_sector_stock_momentum.py</text>
  <path class="arrow" d="M 472 5483 C 572 5483, 990 4746, 1110 4746"/>
  <rect x="42" y="5540" rx="16" ry="16" width="430" height="78" fill="#d0ebff" stroke="#1c7ed6" stroke-width="2"/>
  <text x="60" y="5566" class="box-title">Jarvis-InfoHub-0915</text>
  <text x="60" y="5588" class="box-text">09:15 HKT</text>
  <text x="60" y="5610" class="box-text">run_infohub_bridge.bat</text>
  <path class="arrow" d="M 472 5579 C 572 5579, 990 4746, 1110 4746"/>
  <rect x="42" y="5636" rx="16" ry="16" width="430" height="78" fill="#d0ebff" stroke="#1c7ed6" stroke-width="2"/>
  <text x="60" y="5662" class="box-title">Jarvis Futu Option Exercise Alert 0918</text>
  <text x="60" y="5684" class="box-text">09:18 HKT</text>
  <text x="60" y="5706" class="box-text">run_futu_option_exercise_alert.bat</text>
  <path class="arrow" d="M 472 5675 C 572 5675, 990 4746, 1110 4746"/>
  <rect x="42" y="5732" rx="16" ry="16" width="430" height="78" fill="#d0ebff" stroke="#1c7ed6" stroke-width="2"/>
  <text x="60" y="5758" class="box-title">Jarvis InfoHub Crawl 0945</text>
  <text x="60" y="5780" class="box-text">09:45 HKT</text>
  <text x="60" y="5802" class="box-text">run_infohub_crawl_scheduled.ps1</text>
  <path class="arrow" d="M 472 5771 C 572 5771, 990 4746, 1110 4746"/>
  <rect x="42" y="5828" rx="16" ry="16" width="430" height="78" fill="#d0ebff" stroke="#1c7ed6" stroke-width="2"/>
  <text x="60" y="5854" class="box-title">Jarvis-InfoHub-1130</text>
  <text x="60" y="5876" class="box-text">11:30 HKT</text>
  <text x="60" y="5898" class="box-text">run_infohub_bridge.bat</text>
  <path class="arrow" d="M 472 5867 C 572 5867, 990 4746, 1110 4746"/>
  <rect x="42" y="5924" rx="16" ry="16" width="430" height="78" fill="#d0ebff" stroke="#1c7ed6" stroke-width="2"/>
  <text x="60" y="5950" class="box-title">Jarvis Sector Momentum 1145</text>
  <text x="60" y="5972" class="box-text">11:45 HKT</text>
  <text x="60" y="5994" class="box-text">send_sector_momentum.py</text>
  <path class="arrow" d="M 472 5963 C 572 5963, 990 4746, 1110 4746"/>
  <rect x="42" y="6020" rx="16" ry="16" width="430" height="78" fill="#d0ebff" stroke="#1c7ed6" stroke-width="2"/>
  <text x="60" y="6046" class="box-title">Jarvis Sector Stock Momentum 1155</text>
  <text x="60" y="6068" class="box-text">11:55 HKT</text>
  <text x="60" y="6090" class="box-text">send_sector_stock_momentum.py</text>
  <path class="arrow" d="M 472 6059 C 572 6059, 990 4746, 1110 4746"/>
  <rect x="42" y="6116" rx="16" ry="16" width="430" height="78" fill="#d0ebff" stroke="#1c7ed6" stroke-width="2"/>
  <text x="60" y="6142" class="box-title">Jarvis Daily Market Report 1230</text>
  <text x="60" y="6164" class="box-text">12:30 HKT</text>
  <text x="60" y="6186" class="box-text">run_daily_market_report.ps1 -SendTelegram</text>
  <path class="arrow" d="M 472 6155 C 572 6155, 990 4746, 1110 4746"/>
  <rect x="42" y="6212" rx="16" ry="16" width="430" height="78" fill="#d0ebff" stroke="#1c7ed6" stroke-width="2"/>
  <text x="60" y="6238" class="box-title">Ciovacco-Weekly-Feed</text>
  <text x="60" y="6260" class="box-text">14:00 HKT</text>
  <text x="60" y="6282" class="box-text">run_ciovacco_weekly.bat</text>
  <path class="arrow" d="M 472 6251 C 572 6251, 990 4746, 1110 4746"/>
  <rect x="42" y="6308" rx="16" ry="16" width="430" height="78" fill="#d0ebff" stroke="#1c7ed6" stroke-width="2"/>
  <text x="60" y="6334" class="box-title">Jarvis InfoHub Crawl 1500</text>
  <text x="60" y="6356" class="box-text">15:00 HKT</text>
  <text x="60" y="6378" class="box-text">run_infohub_crawl_scheduled.ps1</text>
  <path class="arrow" d="M 472 6347 C 572 6347, 990 4746, 1110 4746"/>
  <rect x="42" y="6404" rx="16" ry="16" width="430" height="78" fill="#d0ebff" stroke="#1c7ed6" stroke-width="2"/>
  <text x="60" y="6430" class="box-title">Jarvis Futu Option Exercise Alert 1518</text>
  <text x="60" y="6452" class="box-text">15:18 HKT</text>
  <text x="60" y="6474" class="box-text">run_futu_option_exercise_alert.bat</text>
  <path class="arrow" d="M 472 6443 C 572 6443, 990 4746, 1110 4746"/>
  <rect x="42" y="6500" rx="16" ry="16" width="430" height="78" fill="#d0ebff" stroke="#1c7ed6" stroke-width="2"/>
  <text x="60" y="6526" class="box-title">Jarvis-InfoHub-1520</text>
  <text x="60" y="6548" class="box-text">15:20 HKT</text>
  <text x="60" y="6570" class="box-text">run_infohub_bridge.bat</text>
  <path class="arrow" d="M 472 6539 C 572 6539, 990 4746, 1110 4746"/>
  <rect x="42" y="6596" rx="16" ry="16" width="430" height="78" fill="#d0ebff" stroke="#1c7ed6" stroke-width="2"/>
  <text x="60" y="6622" class="box-title">Jarvis Sector Momentum 1545</text>
  <text x="60" y="6644" class="box-text">15:45 HKT</text>
  <text x="60" y="6666" class="box-text">send_sector_momentum.py</text>
  <path class="arrow" d="M 472 6635 C 572 6635, 990 4746, 1110 4746"/>
  <rect x="42" y="6692" rx="16" ry="16" width="430" height="78" fill="#d0ebff" stroke="#1c7ed6" stroke-width="2"/>
  <text x="60" y="6718" class="box-title">Jarvis Sector Stock Momentum 1555</text>
  <text x="60" y="6740" class="box-text">15:55 HKT</text>
  <text x="60" y="6762" class="box-text">send_sector_stock_momentum.py</text>
  <path class="arrow" d="M 472 6731 C 572 6731, 990 4746, 1110 4746"/>
  <rect x="42" y="6788" rx="16" ry="16" width="430" height="78" fill="#d0ebff" stroke="#1c7ed6" stroke-width="2"/>
  <text x="60" y="6814" class="box-title">Jarvis-PolymarketMonitorDaily</text>
  <text x="60" y="6836" class="box-text">20:00 HKT</text>
  <text x="60" y="6858" class="box-text">run_polymarket_monitor_daily.bat</text>
  <path class="arrow" d="M 472 6827 C 572 6827, 990 4746, 1110 4746"/>
  <rect x="42" y="6884" rx="16" ry="16" width="430" height="78" fill="#d0ebff" stroke="#1c7ed6" stroke-width="2"/>
  <text x="60" y="6910" class="box-title">JARVIS-Reminder-polymarket</text>
  <text x="60" y="6932" class="box-text">20:05 HKT</text>
  <text x="60" y="6954" class="box-text">run_daily_reminder.bat polymarket</text>
  <path class="arrow" d="M 472 6923 C 572 6923, 990 4746, 1110 4746"/>
  <rect x="42" y="6980" rx="16" ry="16" width="430" height="78" fill="#d0ebff" stroke="#1c7ed6" stroke-width="2"/>
  <text x="60" y="7006" class="box-title">Jarvis-InfoHub-2055</text>
  <text x="60" y="7028" class="box-text">20:55 HKT</text>
  <text x="60" y="7050" class="box-text">run_infohub_bridge.bat</text>
  <path class="arrow" d="M 472 7019 C 572 7019, 990 4746, 1110 4746"/>
  <rect x="42" y="7076" rx="16" ry="16" width="430" height="78" fill="#d0ebff" stroke="#1c7ed6" stroke-width="2"/>
  <text x="60" y="7102" class="box-title">JARVIS-HotIPO-Premarket</text>
  <text x="60" y="7124" class="box-text">21:00 HKT</text>
  <text x="60" y="7146" class="box-text">run_hotipo_scanner.bat premarket</text>
  <path class="arrow" d="M 472 7115 C 572 7115, 990 4746, 1110 4746"/>
  <rect x="42" y="7172" rx="16" ry="16" width="430" height="78" fill="#d0ebff" stroke="#1c7ed6" stroke-width="2"/>
  <text x="60" y="7198" class="box-title">Jarvis Sector Momentum 2100</text>
  <text x="60" y="7220" class="box-text">21:00 HKT</text>
  <text x="60" y="7242" class="box-text">send_sector_momentum.py</text>
  <path class="arrow" d="M 472 7211 C 572 7211, 990 4746, 1110 4746"/>
  <rect x="42" y="7268" rx="16" ry="16" width="430" height="78" fill="#d0ebff" stroke="#1c7ed6" stroke-width="2"/>
  <text x="60" y="7294" class="box-title">JARVIS-COT-refresh</text>
  <text x="60" y="7316" class="box-text">22:00 HKT, 08:00 HKT</text>
  <text x="60" y="7338" class="box-text">run_cot_refresh.bat</text>
  <path class="arrow" d="M 472 7307 C 572 7307, 990 4746, 1110 4746"/>
  <rect x="42" y="7364" rx="16" ry="16" width="430" height="78" fill="#d0ebff" stroke="#1c7ed6" stroke-width="2"/>
  <text x="60" y="7390" class="box-title">JARVIS-HotIPO-Open</text>
  <text x="60" y="7412" class="box-text">22:00 HKT</text>
  <text x="60" y="7434" class="box-text">run_hotipo_scanner.bat open</text>
  <path class="arrow" d="M 472 7403 C 572 7403, 990 4746, 1110 4746"/>
  <rect x="42" y="7460" rx="16" ry="16" width="430" height="96" fill="#d0ebff" stroke="#1c7ed6" stroke-width="2"/>
  <text x="60" y="7486" class="box-title">BLP-PDF-Title-Pipeline</text>
  <text x="60" y="7508" class="box-text">22:15 HKT</text>
  <text x="60" y="7530" class="box-text">run_blp_title_pipeline.bat --folder</text>
  <text x="60" y="7552" class="box-text">&quot;C:\blp\data&quot; --retag-all</text>
  <path class="arrow" d="M 472 7508 C 572 7508, 990 4746, 1110 4746"/>
  <rect x="42" y="7574" rx="16" ry="16" width="430" height="78" fill="#d0ebff" stroke="#1c7ed6" stroke-width="2"/>
  <text x="60" y="7600" class="box-title">Jarvis InfoHub Crawl 2300</text>
  <text x="60" y="7622" class="box-text">23:00 HKT</text>
  <text x="60" y="7644" class="box-text">run_infohub_crawl_scheduled.ps1</text>
  <path class="arrow" d="M 472 7613 C 572 7613, 990 4746, 1110 4746"/>
  <rect x="42" y="7670" rx="16" ry="16" width="430" height="78" fill="#d0ebff" stroke="#1c7ed6" stroke-width="2"/>
  <text x="60" y="7696" class="box-title">Jarvis Futu Option Exercise Alert 2318</text>
  <text x="60" y="7718" class="box-text">23:18 HKT</text>
  <text x="60" y="7740" class="box-text">run_futu_option_exercise_alert.bat</text>
  <path class="arrow" d="M 472 7709 C 572 7709, 990 4746, 1110 4746"/>
  <rect x="42" y="7766" rx="16" ry="16" width="430" height="78" fill="#d0ebff" stroke="#1c7ed6" stroke-width="2"/>
  <text x="60" y="7792" class="box-title">FinTwit Signal Monitor</text>
  <text x="60" y="7814" class="box-text">n/a</text>
  <text x="60" y="7836" class="box-text">run_fintwit_monitor.bat</text>
  <path class="arrow" d="M 472 7805 C 572 7805, 990 4746, 1110 4746"/>
  <rect x="42" y="7862" rx="16" ry="16" width="430" height="78" fill="#d0ebff" stroke="#1c7ed6" stroke-width="2"/>
  <text x="60" y="7888" class="box-title">Jarvis EODHD Stream</text>
  <text x="60" y="7910" class="box-text">n/a</text>
  <text x="60" y="7932" class="box-text">run_eodhd_stream.bat</text>
  <path class="arrow" d="M 472 7901 C 572 7901, 990 4746, 1110 4746"/>
  <rect x="42" y="7958" rx="16" ry="16" width="430" height="78" fill="#d0ebff" stroke="#1c7ed6" stroke-width="2"/>
  <text x="60" y="7984" class="box-title">Jarvis-PolymarketMonitor</text>
  <text x="60" y="8006" class="box-text">n/a</text>
  <text x="60" y="8028" class="box-text">run_polymarket_monitor.bat</text>
  <path class="arrow" d="M 472 7997 C 572 7997, 990 4746, 1110 4746"/>
  <rect x="42" y="8054" rx="16" ry="16" width="430" height="78" fill="#d0ebff" stroke="#1c7ed6" stroke-width="2"/>
  <text x="60" y="8080" class="box-title">P-model Check</text>
  <text x="60" y="8102" class="box-text">05:00 HKT</text>
  <text x="60" y="8124" class="box-text">Pre-market PAM / P-model signal check</text>
  <path class="arrow" d="M 472 8093 C 572 8093, 990 4746, 1110 4746"/>
  <rect x="42" y="8150" rx="16" ry="16" width="430" height="78" fill="#d0ebff" stroke="#1c7ed6" stroke-width="2"/>
  <text x="60" y="8176" class="box-title">JARVIS Portfolio Commentary (AM)</text>
  <text x="60" y="8198" class="box-text">09:00 HKT</text>
  <text x="60" y="8220" class="box-text">Portfolio actions vs model signals</text>
  <path class="arrow" d="M 472 8189 C 572 8189, 990 4746, 1110 4746"/>
  <rect x="42" y="8246" rx="16" ry="16" width="430" height="78" fill="#d0ebff" stroke="#1c7ed6" stroke-width="2"/>
  <text x="60" y="8272" class="box-title">JARVIS Portfolio Commentary (PM)</text>
  <text x="60" y="8294" class="box-text">20:30 HKT</text>
  <text x="60" y="8316" class="box-text">Portfolio actions vs model signals</text>
  <path class="arrow" d="M 472 8285 C 572 8285, 990 4746, 1110 4746"/>
  <rect x="24" y="8360" rx="14" ry="14" width="980" height="798" fill="#fff9db" stroke="#fcc419" stroke-width="2"/>
  <text x="40" y="8384" class="lane">Repo-defined / Not Currently Scheduled</text>
  <rect x="42" y="8388" rx="16" ry="16" width="430" height="78" fill="#fff3bf" stroke="#f08c00" stroke-width="2"/>
  <text x="60" y="8414" class="box-title">Jarvis Light</text>
  <text x="60" y="8436" class="box-text">n/a</text>
  <text x="60" y="8458" class="box-text">run_light.bat</text>
  <path class="arrow" d="M 472 8427 C 572 8427, 990 4746, 1110 4746"/>
  <rect x="42" y="8484" rx="16" ry="16" width="430" height="78" fill="#fff3bf" stroke="#f08c00" stroke-width="2"/>
  <text x="60" y="8510" class="box-title">Excel Reminder</text>
  <text x="60" y="8532" class="box-text">10:00 HKT</text>
  <text x="60" y="8554" class="box-text">Manual Excel and data reminder</text>
  <path class="arrow" d="M 472 8523 C 572 8523, 990 4746, 1110 4746"/>
  <rect x="42" y="8580" rx="16" ry="16" width="430" height="78" fill="#fff3bf" stroke="#f08c00" stroke-width="2"/>
  <text x="60" y="8606" class="box-title">Scrape Cw</text>
  <text x="60" y="8628" class="box-text">10:00 HKT</text>
  <text x="60" y="8650" class="box-text">daily_reminders.py --task scrape_cw</text>
  <path class="arrow" d="M 472 8619 C 572 8619, 990 4746, 1110 4746"/>
  <rect x="42" y="8676" rx="16" ry="16" width="430" height="78" fill="#fff3bf" stroke="#f08c00" stroke-width="2"/>
  <text x="60" y="8702" class="box-title">Northbound</text>
  <text x="60" y="8724" class="box-text">15:30 HKT</text>
  <text x="60" y="8746" class="box-text">daily_reminders.py --task northbound</text>
  <path class="arrow" d="M 472 8715 C 572 8715, 990 4746, 1110 4746"/>
  <rect x="42" y="8772" rx="16" ry="16" width="430" height="78" fill="#fff3bf" stroke="#f08c00" stroke-width="2"/>
  <text x="60" y="8798" class="box-title">Scrape P Model</text>
  <text x="60" y="8820" class="box-text">20:00 HKT</text>
  <text x="60" y="8842" class="box-text">daily_reminders.py --task scrape_p_model</text>
  <path class="arrow" d="M 472 8811 C 572 8811, 990 4746, 1110 4746"/>
  <rect x="42" y="8868" rx="16" ry="16" width="430" height="78" fill="#fff3bf" stroke="#f08c00" stroke-width="2"/>
  <text x="60" y="8894" class="box-title">Scrape All</text>
  <text x="60" y="8916" class="box-text">22:00 HKT</text>
  <text x="60" y="8938" class="box-text">daily_reminders.py --task scrape_all</text>
  <path class="arrow" d="M 472 8907 C 572 8907, 990 4746, 1110 4746"/>
  <rect x="42" y="8964" rx="16" ry="16" width="430" height="78" fill="#fff3bf" stroke="#f08c00" stroke-width="2"/>
  <text x="60" y="8990" class="box-title">Scrape Pam</text>
  <text x="60" y="9012" class="box-text">n/a</text>
  <text x="60" y="9034" class="box-text">alias:scrape_pam-&gt;scrape_p_model</text>
  <path class="arrow" d="M 472 9003 C 572 9003, 990 4746, 1110 4746"/>
  <rect x="42" y="9060" rx="16" ry="16" width="430" height="78" fill="#fff3bf" stroke="#f08c00" stroke-width="2"/>
  <text x="60" y="9086" class="box-title">JARVIS Portfolio Digest</text>
  <text x="60" y="9108" class="box-text">n/a</text>
  <text x="60" y="9130" class="box-text">Consolidated portfolio monitor digest</text>
  <path class="arrow" d="M 472 9099 C 572 9099, 990 4746, 1110 4746"/>
  <rect x="24" y="9174" rx="14" ry="14" width="980" height="222" fill="#f1f3f5" stroke="#adb5bd" stroke-width="2" stroke-dasharray="8 6"/>
  <text x="40" y="9198" class="lane">Disabled</text>
  <rect x="42" y="9202" rx="16" ry="16" width="430" height="78" fill="#f1f3f5" stroke="#868e96" stroke-width="2"/>
  <text x="60" y="9228" class="box-title">Telegram Hub Hourly</text>
  <text x="60" y="9250" class="box-text">16:26 HKT</text>
  <text x="60" y="9272" class="box-text">Hourly cross-repo Telegram digest</text>
  <path class="arrow disabled" d="M 472 9241 C 572 9241, 990 4746, 1110 4746"/>
  <rect x="42" y="9298" rx="16" ry="16" width="430" height="78" fill="#f1f3f5" stroke="#868e96" stroke-width="2"/>
  <text x="60" y="9324" class="box-title">Jarvis Excel Sync PM</text>
  <text x="60" y="9346" class="box-text">21:00 HKT</text>
  <text x="60" y="9368" class="box-text">Excel sync workflow</text>
  <path class="arrow disabled" d="M 472 9337 C 572 9337, 990 4746, 1110 4746"/>
  <rect x="1110" y="4666" rx="22" ry="22" width="280" height="160" fill="#fff4e6" stroke="#e67700" stroke-width="3"/>
  <text x="1250" y="4722" text-anchor="middle" class="box-title">Telegram Chat</text>
  <text x="1250" y="4752" text-anchor="middle" class="box-text">All alert paths converge here</text>
  <text x="1250" y="4776" text-anchor="middle" class="box-text">Lane color shows live vs repo-only vs disabled</text>
</svg>
